<svg xmlns="http://www.w3.org/2000/svg"
 width="20.000000pt" height="23.000000pt" viewBox="0 0 20.000000 23.000000"
 preserveAspectRatio="xMidYMid meet">

<g transform="translate(0.000000,23.000000) scale(0.100000,-0.100000)"
fill="#000000" stroke="none">
<path d="M20 209 c0 -11 13 -39 29 -62 23 -35 26 -46 18 -65 -7 -14 -17 -22
-30 -20 -23 4 -43 -23 -34 -46 10 -24 35 -19 54 11 9 16 25 38 35 49 17 20 18
22 3 28 -11 4 -15 12 -11 22 5 13 -48 104 -61 104 -2 0 -3 -9 -3 -21z m20
-174 c0 -8 -4 -15 -9 -15 -13 0 -22 16 -14 24 11 11 23 6 23 -9z"/>
<path d="M140 184 c-50 -69 -51 -71 -35 -78 19 -7 77 77 73 106 -3 17 -8 13
-38 -28z"/>
<path d="M110 85 c0 -3 11 -23 25 -45 26 -42 51 -51 62 -24 9 24 -11 50 -34
46 -12 -2 -23 4 -26 13 -6 14 -27 22 -27 10z m70 -50 c0 -8 -4 -15 -10 -15 -5
0 -10 7 -10 15 0 8 5 15 10 15 6 0 10 -7 10 -15z"/>
</g>
</svg>
