<?xml version="1.0" standalone="no"?>
<!DOCTYPE svg PUBLIC "-//W3C//DTD SVG 20010904//EN"
 "http://www.w3.org/TR/2001/REC-SVG-20010904/DTD/svg10.dtd">
<svg version="1.0" xmlns="http://www.w3.org/2000/svg"
 width="1239.000000pt" height="1280.000000pt" viewBox="0 0 1239.000000 1280.000000"
 preserveAspectRatio="xMidYMid meet">
<metadata>
Created by potrace 1.15, written by Peter Selinger 2001-2017
</metadata>
<g transform="translate(0.000000,1280.000000) scale(0.100000,-0.100000)"
fill="#000000" stroke="none">
<path d="M2953 12770 c-163 -57 -162 -56 -218 -201 -50 -129 -120 -252 -314
-549 -207 -315 -230 -354 -291 -482 -136 -290 -154 -531 -56 -751 13 -29 192
-340 398 -692 829 -1413 2288 -3929 2288 -3944 0 -9 -628 -1028 -651 -1057 -7
-8 -33 -6 -97 7 -275 58 -607 42 -928 -47 -1087 -297 -2081 -1340 -2375 -2490
-60 -238 -82 -404 -82 -639 -1 -218 13 -339 60 -520 187 -723 783 -1152 1558
-1122 1125 44 2330 1030 2781 2276 115 316 164 567 171 876 6 242 -8 375 -58
575 l-31 123 289 291 289 291 118 192 c65 106 121 193 124 193 4 0 102 -161
217 -356 l210 -356 304 -322 303 -321 3 -260 c2 -289 15 -394 80 -640 263
-1001 1035 -1918 1969 -2338 535 -242 1064 -291 1512 -142 755 251 1135 1022
973 1975 -160 946 -851 1911 -1734 2422 -116 68 -355 181 -469 223 -509 187
-1028 200 -1420 34 -56 -24 -72 -27 -81 -17 -7 7 -134 220 -284 473 -149 253
-279 470 -289 483 -9 12 -39 30 -65 40 -31 11 -55 28 -67 47 l-19 30 495 840
c751 1273 1385 2343 1858 3134 234 392 435 739 447 770 51 137 61 275 29 431
-42 204 -121 358 -397 772 -210 315 -268 414 -326 558 -21 52 -49 107 -63 121
-17 18 -63 39 -140 64 -106 36 -117 37 -155 26 -23 -7 -51 -23 -63 -36 -22
-25 -875 -1439 -1546 -2565 -373 -625 -1243 -2091 -1267 -2134 -8 -15 -57 62
-303 485 -928 1595 -2445 4174 -2479 4213 -20 23 -72 46 -103 46 -13 -1 -60
-14 -105 -30z m798 -8789 c69 -26 149 -106 185 -184 49 -109 67 -200 67 -357
1 -159 -10 -239 -53 -406 -99 -378 -326 -760 -635 -1069 -287 -287 -612 -479
-914 -540 -116 -24 -267 -17 -338 14 -100 44 -181 161 -220 319 -26 103 -23
374 6 512 150 719 738 1425 1391 1669 195 73 389 89 511 42z m4989 9 c528
-108 1110 -619 1405 -1235 135 -284 190 -505 189 -770 0 -231 -41 -369 -139
-473 -66 -71 -125 -95 -252 -100 -496 -21 -1173 476 -1530 1123 -302 546 -346
1145 -102 1383 90 88 233 112 429 72z"/>
</g>
</svg>
