<svg xmlns="http://www.w3.org/2000/svg" xml:space="preserve" width="1.66934in" height="2.23224in" version="1.0" shape-rendering="geometricPrecision" text-rendering="geometricPrecision" image-rendering="optimizeQuality" fill-rule="evenodd" clip-rule="evenodd"
viewBox="0 0 393 525"
 xmlns:xlink="http://www.w3.org/1999/xlink">
 <g id="Layer_x0020_1">
  <metadata id="CorelCorpID_0Corel-Layer"/>
  <g id="_712533208">
   <path fill="#09090A" d="M239 316l0 36 -13 0 -1 -100c28,-1 62,-3 66,25 2,15 -5,26 -13,32 -11,7 -24,7 -39,7zm-83 22c-9,15 -24,17 -44,12 0,0 -1,0 -1,1l-2 1c0,0 -1,0 -2,0 -1,1 1,0 -2,1 0,-1 0,0 0,-2 0,-1 1,1 0,-1 -2,1 -3,0 -3,0 -2,-1 -3,-2 -3,-3l-1 -1c-1,-3 1,-1 -1,-3l0 14c-4,0 -5,1 -10,1 4,2 3,0 4,2 -7,0 -9,-2 -11,2l-8 0c-1,2 0,0 0,3 -2,0 -2,-1 -3,-1 -1,1 -2,5 -9,3 -3,-1 1,0 -2,-1 0,3 1,2 0,5 -2,-1 -2,-1 -4,-3 -1,-1 -2,-2 -2,-4 -2,-1 -1,2 -2,-1 -1,-2 3,-7 6,-12 10,-20 12,-43 13,-66 1,-25 -2,-49 -6,-73 -1,-7 -4,-16 -5,-22 14,2 26,6 42,5 13,-1 29,-3 40,-7 20,-8 20,-9 34,-19 1,-1 2,-1 4,-2 2,-2 2,-4 5,-6 2,-1 2,-1 3,-3l2 -2c2,-3 4,-6 6,-8 -1,31 0,63 0,94 0,8 1,81 -2,89l0 2c0,0 0,0 0,0l-1 -2c0,0 0,0 0,0 -5,0 -5,0 -9,1 -1,0 -4,1 -4,1 -1,1 0,0 0,3 -3,0 -4,0 -7,-1 0,0 0,0 0,0 0,5 -7,2 -9,2 -2,4 -2,6 -4,7 0,-1 -1,-1 -1,-2 0,0 0,0 0,0 0,0 0,-1 0,-1 -1,-3 0,-2 -1,-3zm-97 -40c-1,7 -4,25 -6,32 -12,38 -25,23 -6,48 4,5 7,11 12,12 3,1 3,2 6,1 0,0 0,0 0,0 3,4 21,24 26,28 58,53 119,74 189,22 17,-12 29,-25 41,-40 4,-4 10,-13 13,-15 -1,2 -1,2 -2,4l5 -1c2,-1 3,-3 4,-5 20,-26 16,-19 7,-32 -15,-22 -12,-38 -16,-57l-6 0 0 -4c2,-60 5,-54 14,-106 -18,3 -27,6 -46,6 -35,-1 -78,-16 -94,-48 0,-1 -1,-2 -2,-4l-1 -4c0,0 -1,0 -1,0 0,0 0,0 -1,1l0 1c-11,23 -28,37 -53,46 -33,11 -55,10 -89,2 7,34 11,47 12,82 1,6 1,11 1,16 -1,11 -1,9 -4,9 0,0 -2,0 -2,0l-1 6z"/>
   <path fill="#DCB56B" d="M226 515c-1,-1 -1,-1 -1,-5l7 -29 4 -1c1,3 5,24 6,28 1,5 1,5 -3,6l-2 -7 -7 1c-3,8 0,6 -4,7zm-51 -33c13,-5 14,31 4,34 -13,4 -13,-31 -4,-34zm-48 -4c2,1 1,-1 1,2l0 12c0,4 1,10 0,14 -3,9 -14,7 -14,-5l-1 -23c1,0 -1,-2 2,-1 6,2 -3,25 4,29 7,3 6,-6 6,-12 0,-3 0,-6 0,-9 0,-7 0,-7 2,-7zm5 0c13,1 16,4 16,18 0,18 -7,16 -16,16l0 -25 0 -9zm76 38c0,-7 -1,-29 0,-33 5,-1 11,-2 13,2 2,5 0,9 -2,12l1 1c1,2 2,2 2,5 1,12 -5,13 -14,13zm42 -18c-2,4 0,11 -1,13 -1,1 1,2 -2,2 -3,0 -1,0 -1,-2l0 -32c6,0 11,-1 13,5 1,7 -2,9 -4,12 2,3 5,12 5,16 -5,0 -4,-2 -5,-6 -2,-5 -1,-7 -5,-8zm15 -20c5,-1 10,-2 12,3 2,4 0,9 -2,11 0,1 1,1 1,1 0,0 0,0 0,0 0,0 0,1 1,1 1,1 1,2 2,5 1,12 -7,12 -15,12l1 -33zm37 -3c8,-2 14,-1 13,9 0,3 -1,4 -2,6l-2 2c2,1 5,11 5,13 0,2 0,1 0,2 -5,0 -3,1 -4,-2 -2,-4 -1,-10 -6,-11 -2,4 1,10 -1,14l-3 0 0 -33zm-147 10c0,0 -1,0 -1,-1 -1,0 0,1 -2,0l0 -4 13 1c0,7 0,3 -3,4 -3,2 -2,1 -2,2l0 22 5 1 0 4 -13 -1c0,-6 0,-3 5,-5l0 -23 -2 0zm141 -9l0 4 -9 1 0 9 9 -1 -1 5 -8 0 0 11c3,-1 7,-1 9,0l0 3 -12 2 0 -34 12 0zm-196 30c0,-1 0,-4 0,-5l0 -21 -5 -1 -1 -4 16 1 0 5 -6 0 0 22c0,7 -1,6 -2,6 -2,-1 -1,2 -2,-3zm-14 -4c3,-10 -7,-7 -9,-16 -3,-10 3,-14 12,-11l0 5c-3,-2 -5,-2 -8,-1 -4,10 9,7 9,18 1,5 0,9 -4,10 -2,1 -3,1 -5,1 -6,-1 -5,-3 -5,-7 4,1 6,3 10,1zm236 -57c2,-5 7,-10 11,-14 1,-1 2,-3 3,-4 3,1 5,2 8,4l-12 4c1,2 0,1 2,2 6,3 11,0 17,-1 0,0 0,0 0,0 0,0 0,-1 0,-1l0 -1c0,0 1,0 1,0 5,1 -1,3 7,3 4,1 5,0 9,2 2,1 0,0 1,1 -1,1 -4,1 -6,1l-18 3c-9,0 -3,-6 -23,1zm16 -195l8 -1 6 14c-5,-2 -5,-4 -8,-7 -3,-4 -6,-2 -6,-6zm-285 -14c0,0 -3,5 -4,6 -1,2 -2,4 -3,7l9 1c0,3 -4,3 -6,6 -3,3 -3,4 -7,6 -1,0 -2,2 -1,-1l-1 2c12,3 11,-2 15,-3l1 7c-7,0 -9,1 -12,4 -5,6 -1,3 -8,9 11,3 15,-6 20,-9l0 11 1 -1c0,-1 0,-1 0,-1l0 -9c0,0 0,0 0,1l1 2c0,2 0,4 0,6 4,-10 -3,-62 -6,-74 -2,-10 -12,-31 5,-27 12,4 21,6 35,6 38,1 80,-14 96,-48 3,-7 2,-9 12,-8 4,5 5,11 9,17 24,34 72,44 112,37 5,-1 16,-5 20,-4 8,4 3,14 1,23 -1,8 -3,15 -5,24 -1,8 -2,18 -3,26l-1 21c1,3 1,0 1,0l1 -1c0,-1 0,-1 0,-1l0 4 1 0 0 -5c7,4 7,11 21,11 -1,-2 0,-1 -2,-2 0,0 -1,-1 -1,-1 -1,-1 -1,0 -2,-2 -4,-5 -4,-10 -16,-9l1 -7c6,3 6,5 16,3 2,9 6,18 8,29 -7,-2 -14,-17 -24,-10l0 1c1,1 9,7 10,8 4,3 8,3 14,1 1,9 4,25 3,33 -9,-11 -6,-15 -20,-14l8 10c4,5 6,3 12,6l-1 15c-6,-2 1,-15 -18,-16 2,3 2,2 4,6 4,6 4,10 14,12 0,3 -1,11 -2,14 -6,-7 -1,-16 -15,-18l11 16c2,3 2,2 4,4 0,3 0,5 -1,8 -1,5 -1,5 -3,7 -1,-1 -2,-2 -2,-4 -3,4 -1,3 2,4 0,4 -1,5 -2,9 -2,8 -2,5 -4,6 -2,-4 -2,-5 -2,-11 0,3 -2,4 -4,7 2,3 3,3 6,5 -2,8 -10,22 -15,29 -8,12 -15,19 -19,25l-6 0c2,-5 2,-10 -1,-14 -1,2 -7,12 -7,13l-7 0 -2 1 -2 -4 -2 3c-2,3 -3,0 -2,4 2,1 3,2 4,3 -3,5 -8,5 -9,16l-6 1c1,-4 2,-5 0,-11 -3,3 0,2 -6,8 -4,3 -3,5 -9,5 -1,-1 0,-1 -1,-4 -4,3 -6,6 -13,6 -1,1 0,0 -2,1l-10 1c-26,2 -43,3 -69,2l-23 -1c-2,-1 -1,0 -2,-1 -3,-2 -8,-8 -10,-8 0,1 0,3 -1,4l0 3c0,0 0,0 -1,0 -3,-1 0,1 -3,-3 -3,-6 -3,-4 -7,-8l-3 -3 -2 -2c-2,9 2,9 1,15 -8,1 -20,-8 -25,-13 2,-2 3,-2 6,-2 0,4 2,5 5,7 4,3 4,4 8,7 0,-4 0,-7 -1,-10 -2,-3 -3,-2 -5,-5 1,-1 1,-1 2,-2l3 -1c2,-1 3,-1 5,-2 -1,-3 3,-2 -4,-2 -5,0 -9,2 -12,-1 -2,2 -3,2 -5,2l-10 -19c-8,9 2,16 4,20 -8,0 -6,-2 -11,-6 0,-9 3,-9 1,-13l-8 -17c-8,6 0,17 1,18 -5,0 -4,1 -6,-2l-17 -27 -3 2c0,0 0,0 0,1 3,5 5,9 8,14 3,4 7,9 9,13 -7,1 -7,-3 -12,-3 -7,0 -5,4 -12,5 -10,0 -21,-2 -30,-2 -3,5 -2,17 -4,23 -1,5 -3,17 -3,23l13 1c0,6 -2,10 -2,16 15,1 30,2 46,2l-1 9 1 2c4,-18 1,-10 1,-17 0,-3 5,-23 7,-25 3,0 6,0 9,1 0,1 0,1 0,1l-7 33c0,2 0,4 0,6l-3 5c10,1 22,4 33,5 33,5 74,7 107,6 36,-2 95,-10 130,-22 0,-4 -1,-7 -2,-11 -3,0 -1,0 -2,0l2 10c-4,2 -8,4 -13,4 0,0 0,0 0,0 -1,-4 -1,-7 -1,-10 0,-1 -2,-3 -2,-5 0,-3 0,-4 0,-6 1,-11 -5,-8 -5,-22 4,0 8,-3 13,-2 0,8 2,9 4,15 1,3 2,10 4,13l6 -1c5,1 27,-1 32,-3l2 -13 14 -2c1,-7 2,-15 3,-23 1,-7 3,-15 4,-23 -10,0 -23,4 -39,3 2,-1 5,-1 6,-3 -3,-2 -6,-5 -12,-2l-7 3c0,0 -1,2 -3,0 6,-10 11,-19 17,-32 8,-19 6,-20 10,-37 5,1 9,-1 11,-3l7 -9c-15,-1 -10,7 -17,11l1 -10c5,-1 7,-2 10,-5 2,-3 5,-7 6,-9 -10,0 -10,2 -13,8 -1,3 -1,2 -3,4 0,-4 0,-9 1,-12 8,-2 12,-7 15,-15 -14,1 -8,7 -15,14l-2 -24c5,-1 7,-2 9,-6 1,-4 3,-8 3,-11 -11,1 -7,9 -11,17 -1,-2 -4,-17 -5,-21 -4,-14 -9,-25 -15,-37 -5,-11 -8,-10 -7,-18l5 10c4,-6 1,-16 0,-18l-4 4c1,-21 15,-45 2,-50 -4,-2 -24,5 -40,6 -6,0 -8,1 -11,-4l-2 3c-3,-2 -3,-4 -10,-7l1 4c1,2 3,2 5,3 -7,0 -9,-3 -15,-2 -10,0 -32,-11 -40,-16 -30,-20 -20,-38 -35,-38 -13,0 -6,19 -35,38 -8,5 -29,16 -40,15 -6,0 -3,2 -14,3 4,-2 5,-1 6,-7 -7,3 -6,3 -9,6l-1 1c-3,-1 0,0 -2,-3 -3,5 -6,4 -13,4 -5,-1 -9,-1 -14,-2 -6,-1 -20,-6 -25,-4 -12,7 2,28 3,52 -1,-2 -3,-5 -4,-6 -1,1 -2,7 -2,9 -1,4 0,6 1,9 2,-2 1,0 3,-5 0,-1 1,-3 1,-3 1,-2 0,-1 2,-2l0 6z"/>
   <path fill="#27292A" d="M112 350l-6 -2 0 -14c6,2 12,8 24,7 9,-1 14,-6 15,-16 1,-8 1,-21 1,-30 0,-9 0,-23 -1,-31 -7,0 -32,1 -38,-1l0 -11 52 0c1,16 0,49 0,67 0,10 -1,11 -3,19 1,1 0,0 1,3 0,0 0,1 0,1 0,0 0,0 0,0 0,1 1,1 1,2 2,-1 2,-3 4,-7 2,0 9,3 9,-2 0,0 0,0 0,0 3,1 4,1 7,1 0,-3 -1,-2 0,-3 0,0 3,-1 4,-1 4,-1 4,-1 9,-1 0,0 0,0 0,0l1 2c0,0 0,0 0,0l0 -2c3,-8 2,-81 2,-89 0,-31 -1,-63 0,-94 -2,2 -4,5 -6,8l-2 2c-1,2 -1,2 -3,3 -3,2 -3,4 -5,6 -2,1 -3,1 -4,2 -14,10 -14,11 -34,19 -11,4 -27,6 -40,7 -16,1 -28,-3 -42,-5 1,6 4,15 5,22 4,24 7,48 6,73 -1,23 -3,46 -13,66 -3,5 -7,10 -6,12 1,3 0,0 2,1 0,2 1,3 2,4 2,2 2,2 4,3 1,-3 0,-2 0,-5 3,1 -1,0 2,1 7,2 8,-2 9,-3 1,0 1,1 3,1 0,-3 -1,-1 0,-3l8 0c2,-4 4,-2 11,-2 -1,-2 0,0 -4,-2 5,0 6,-1 10,-1l0 -14c2,2 0,0 1,3l1 1c0,1 1,2 3,3 0,0 1,1 3,0 1,2 0,0 0,1 0,2 0,1 0,2 3,-1 1,0 2,-1 1,0 2,0 2,0l2 -1c0,-1 1,-1 1,-1z"/>
   <path fill="#B58949" d="M326 291l0 4 6 0c4,19 1,35 16,57 9,13 13,6 -7,32 -1,2 -2,4 -4,5l-5 1c1,-2 1,-2 2,-4 -3,2 -9,11 -13,15 -12,15 -24,28 -41,40 -70,52 -131,31 -189,-22 -5,-4 -23,-24 -26,-28 0,0 0,0 0,0 -3,1 -3,0 -6,-1 -5,-1 -8,-7 -12,-12 -19,-25 -6,-10 6,-48 2,-7 5,-25 6,-32 -3,-1 -2,1 -3,1l0 -7c-1,3 0,19 -7,40 -3,7 -2,6 -6,9l-6 13c-4,7 -1,2 -6,6 0,2 2,11 3,14 1,0 1,0 1,0l1 2c1,-2 1,-4 2,-5 0,2 0,1 1,2 -1,1 -2,1 -4,2 0,4 1,5 2,9 3,8 2,6 5,7 1,-5 1,-6 1,-12 0,2 5,4 4,7 2,0 2,0 3,0 -2,10 1,12 -1,20 6,-2 5,-5 8,-10 1,1 2,2 3,3 -6,11 -6,6 -1,19 0,3 1,5 2,7 1,-3 4,-6 3,-11 0,-4 -1,-8 -1,-11 0,1 0,0 1,1 0,1 1,1 1,2l20 21 23 20c2,1 1,0 2,1 1,2 0,-1 0,1 7,0 3,-1 4,2 2,0 4,3 5,5 -1,3 1,2 -2,3l3 3 0 -7c3,1 11,6 14,8 4,3 9,4 13,7l0 4 -5 0c1,1 0,0 2,1l23 1c26,1 43,0 69,-2l10 -1c2,-1 1,0 2,-1 -2,0 -2,0 -3,-1 6,-1 33,-16 38,-20 2,-1 3,-2 5,-3 -1,-4 0,-1 2,-4l2 -3 2 4 2 -1c0,0 -1,-1 -2,-1l-1 -1c4,-2 16,-13 20,-17 3,-3 4,-5 8,-9 3,-3 6,-7 8,-10 -2,10 -1,11 3,19l1 -4c5,-12 6,-12 1,-20l2 -4c3,4 1,7 8,9 -2,-8 1,-12 -1,-18l2 -2c2,-3 4,-4 4,-7 0,6 0,7 2,11 2,-1 2,2 4,-6 1,-4 2,-5 2,-9 -3,-1 -5,0 -2,-4 0,2 1,3 2,4 2,-2 2,-2 3,-7 1,-3 1,-5 1,-8 -2,-2 -2,-1 -4,-4l-11 -16c-4,-3 -8,-20 -9,-26 -1,-8 -1,-15 -1,-24 0,-6 -1,-6 1,-7l0 -1c-2,-1 -1,0 -1,-3 0,0 0,-4 0,-4l-1 0 0 16 -9 0z"/>
   <path fill="#090708" d="M189 18c3,-3 4,-5 7,-7 3,2 6,5 8,8l-8 7c-1,-1 -2,-2 -4,-4 -2,-2 -2,-1 -3,-4zm-36 9c3,4 13,10 9,19 -4,1 -12,0 -16,-2 -5,-3 -6,-6 -12,-8 1,3 3,5 5,8 4,10 6,23 6,34l103 0c0,-19 3,-30 12,-42 -7,2 -8,5 -12,7 -3,2 -11,4 -16,3 -8,-6 6,-16 8,-19l-8 -8 -7 8c5,10 -8,30 -15,19 -13,-23 -3,-21 1,-28l-15 -14 -14 14c0,0 0,2 1,2 2,3 8,5 6,12 0,1 -5,13 -7,14 -1,3 -4,4 -7,3 -3,-1 -4,-3 -5,-6 -3,-7 -5,-9 -2,-16l-8 -8 -7 8z"/>
   <path fill="#F7E9C8" d="M56 282c-6,-1 -9,-2 -14,2 -2,1 -2,2 -4,4l-5 4c0,0 0,1 0,1 16,1 13,-7 23,-9l0 8 0 7c1,0 0,-2 3,-1l1 -6c0,0 2,0 2,0 3,0 3,2 4,-9 0,-5 0,-10 -1,-16 -1,-35 -5,-48 -12,-82 34,8 56,9 89,-2 25,-9 42,-23 53,-46l0 -1c1,-1 1,-1 1,-1 0,0 1,0 1,0l1 4c1,2 2,3 2,4 16,32 59,47 94,48 19,0 28,-3 46,-6 -9,52 -12,46 -14,106l9 0 0 -16 0 -4c0,0 0,0 0,1l-1 1c0,0 0,3 -1,0l1 -21c1,-8 2,-18 3,-26 2,-9 4,-16 5,-24 2,-9 7,-19 -1,-23 -4,-1 -15,3 -20,4 -40,7 -88,-3 -112,-37 -4,-6 -5,-12 -9,-17 -10,-1 -9,1 -12,8 -16,34 -58,49 -96,48 -14,0 -23,-2 -35,-6 -17,-4 -7,17 -5,27 3,12 10,64 6,74 0,-2 0,-4 0,-6l-1 -2c0,-1 0,-1 0,-1l0 9c0,0 0,0 0,1l-1 1z"/>
   <path fill="#DCB56B" d="M145 91l103 -1 0 18c-20,1 -54,0 -75,0l-28 0 0 -17zm0 -9l103 -1 0 6 -103 0 0 -5zm37 -64l14 -14 15 14c-4,7 -14,5 -1,28 7,11 20,-9 15,-19l7 -8 8 8c-2,3 -16,13 -8,19 5,1 13,-1 16,-3 4,-2 5,-5 12,-7 -9,12 -12,23 -12,42l-103 0c0,-11 -2,-24 -6,-34 -2,-3 -4,-5 -5,-8 6,2 7,5 12,8 4,2 12,3 16,2 4,-9 -6,-15 -9,-19l7 -8 8 8c-3,7 -1,9 2,16 1,3 2,5 5,6 3,1 6,0 7,-3 2,-1 7,-13 7,-14 2,-7 -4,-9 -6,-12 -1,0 -1,-2 -1,-2zm-3 27c-5,0 -5,-2 -6,-6 -6,-16 4,-9 -5,-17 -2,-3 -4,-5 -8,-7 -2,1 -10,9 -11,12 1,6 11,8 10,16 -8,-1 -11,-1 -16,-6 -4,-3 -11,-8 -17,-6 -1,4 4,5 9,14 10,19 5,46 6,67 3,0 106,1 111,0 1,-23 -5,-55 10,-74 2,-2 5,-4 4,-7 -11,-4 -14,12 -33,12 1,-6 3,-7 8,-12 3,-2 3,-2 3,-4 -1,-3 -9,-11 -12,-12 -3,2 -4,4 -7,6 -2,3 -5,4 -3,8 1,5 0,4 -2,9 -1,5 -1,7 -6,7 -2,-2 -7,-12 -7,-16 3,-4 7,-6 8,-10 -1,-4 -4,-6 -6,-8 -3,-3 -6,-5 -8,-7 -2,-3 -4,-6 -9,-2 -3,3 -4,5 -7,8 -10,9 -9,9 -2,16 6,5 0,7 -4,19z"/>
   <path fill="#E1B666" d="M239 263c19,0 39,0 38,21 -1,21 -19,20 -38,20l0 -41zm0 53c15,0 28,0 39,-7 8,-6 15,-17 13,-32 -4,-28 -38,-26 -66,-25l1 100 13 0 0 -36z"/>
   <path fill="#E1B666" d="M112 350c20,5 35,3 44,-12 2,-8 3,-9 3,-19 0,-18 1,-51 0,-67l-52 0 0 11c6,2 31,1 38,1 1,8 1,22 1,31 0,9 0,22 -1,30 -1,10 -6,15 -15,16 -12,1 -18,-5 -24,-7l0 14 6 2z"/>
   <path fill="#070707" d="M145 108l28 0c21,0 55,1 75,0l0 -18 -103 1 0 17z"/>
   <path fill="#F3DB96" d="M44 407c0,-1 0,-1 0,-1l3 -2 -6 -13c3,-1 5,-3 6,-5 1,-3 -4,-5 -4,-7 0,6 0,7 -1,12 -3,-1 -2,1 -5,-7 -1,-4 -2,-5 -2,-9 2,-1 3,-1 4,-2 -1,-1 -1,0 -1,-2 -1,1 -1,3 -2,5l-1 -2c0,0 0,0 -1,0 -1,-3 -3,-12 -3,-14 5,-4 2,1 6,-6l6 -13c-9,2 -6,11 -11,17 -2,-3 -2,-10 -3,-14 6,-1 9,-3 11,-7l8 -11c-19,0 -11,13 -19,17l-1 -16c13,-6 5,3 17,-12 2,-2 3,-2 4,-4 -18,-2 -11,9 -21,14l1 -15c7,-2 7,1 13,-5 2,-2 3,-3 5,-5 3,-4 4,-2 4,-5 -17,-2 -13,10 -22,13 1,-7 3,-17 4,-24 2,-6 6,-16 7,-21l1 -2 5 -12c1,-3 2,-5 3,-7 1,-1 4,-6 4,-6 -3,1 -7,10 -9,14 -2,4 -5,13 -8,16 -1,-6 2,-8 1,-13 -1,-3 -4,-6 -6,-7 0,11 -2,15 5,20l-4 13c-2,-11 2,-16 -8,-19 2,9 1,16 8,19 -1,8 -4,13 -5,26 -2,-1 -2,0 -3,-5 0,-2 0,-4 -1,-6 -1,-3 -4,-4 -8,-5 1,7 4,15 11,17l-1 24c-6,-4 0,-12 -15,-14 3,7 6,12 12,15l3 1 1 11c-4,-3 -3,-5 -6,-9 -2,-3 -5,-3 -10,-3l6 9c3,3 5,3 10,5l1 10c-7,-3 -2,-12 -17,-11 1,2 2,3 4,5 7,8 3,4 13,8l3 11c-8,-3 -4,-12 -18,-10 1,3 5,5 7,7 3,4 5,5 11,4 3,13 6,17 8,25 -7,-2 -8,-13 -19,-8 8,8 10,9 19,9l6 12z"/>
   <path fill="#060709" d="M239 304c19,0 37,1 38,-20 1,-21 -19,-21 -38,-21l0 41z"/>
   <path fill="#130C0A" d="M40 263c-1,5 -5,15 -7,21 -1,7 -3,17 -4,24 9,-3 5,-15 22,-13 0,3 -1,1 -4,5 -2,2 -3,3 -5,5 -6,6 -6,3 -13,5l-1 15c10,-5 3,-16 21,-14 -1,2 -2,2 -4,4 -12,15 -4,6 -17,12l1 16c8,-4 0,-17 19,-17l-8 11c-2,4 -5,6 -11,7 1,4 1,11 3,14 5,-6 2,-15 11,-17 4,-3 3,-2 6,-9 7,-21 6,-37 7,-40l0 -8c-10,2 -7,10 -23,9 0,0 0,-1 0,-1l5 -4c2,-2 2,-3 4,-4 5,-4 8,-3 14,-2l0 -11c-5,3 -9,12 -20,9 7,-6 3,-3 8,-9 3,-3 5,-4 12,-4l-1 -7c-4,1 -3,6 -15,3z"/>
   <path fill="#130C0A" d="M342 296c0,0 -1,0 -1,-1 11,-4 16,7 20,12 1,1 0,0 1,1l1 2c-7,0 -10,-2 -13,-6l-8 -8zm4 44c14,2 9,11 15,18 1,-3 2,-11 2,-14 -10,-2 -10,-6 -14,-12 -2,-4 -2,-3 -4,-6 19,1 12,14 18,16l1 -15c-6,-3 -8,-1 -12,-6l-8 -10c14,-1 11,3 20,14 1,-8 -2,-24 -3,-33 -6,2 -10,2 -14,-1 -1,-1 -9,-7 -10,-8 -2,1 -1,1 -1,7 0,9 0,16 1,24 1,6 5,23 9,26z"/>
   <path fill="#130C0A" d="M47 404l17 27c2,3 1,2 6,2 -1,-1 -9,-12 -1,-18l8 17c2,4 -1,4 -1,13 5,4 3,6 11,6 -2,-4 -12,-11 -4,-20l10 19c2,0 3,0 5,-2 3,3 7,1 12,1 0,-2 1,1 0,-1 -1,-1 0,0 -2,-1l-23 -20 -20 -21c0,-1 -1,-1 -1,-2 -1,-1 -1,0 -1,-1 0,3 1,7 1,11 1,5 -2,8 -3,11 -1,-2 -2,-4 -2,-7 -5,-13 -5,-8 1,-19 -1,-1 -2,-2 -3,-3 -3,5 -2,8 -8,10 2,-8 -1,-10 1,-20 -1,0 -1,0 -3,0 -1,2 -3,4 -6,5l6 13z"/>
   <path fill="#A8742E" d="M332 492l-1 -2 7 -2 -6 1c-2,-3 -3,-10 -4,-13 -2,-6 -4,-7 -4,-15 -5,-1 -9,2 -13,2 0,14 6,11 5,22 0,2 0,3 0,6 0,2 2,4 2,5 0,3 0,6 1,10 0,0 0,0 0,0 5,0 9,-2 13,-4l-2 -10c1,0 -1,0 2,0z"/>
   <path fill="#130C0A" d="M319 440c-6,-6 1,-19 4,-25 4,3 5,9 3,14 -3,4 -6,5 -7,11zm-23 4l7 0c0,-1 6,-11 7,-13 3,4 3,9 1,14l6 0c4,-6 11,-13 19,-25 5,-7 13,-21 15,-29 -3,-2 -4,-2 -6,-5l-2 2c2,6 -1,10 1,18 -7,-2 -5,-5 -8,-9l-2 4c5,8 4,8 -1,20l-1 4c-4,-8 -5,-9 -3,-19 -2,3 -5,7 -8,10 -4,4 -5,6 -8,9 -4,4 -16,15 -20,17l1 1c1,0 2,1 2,1z"/>
   <polygon fill="#070707" points="145,87 248,87 248,81 145,82 "/>
   <path fill="#986936" d="M56 508c-1,2 -1,1 -1,4l9 2 3 -5c0,-2 0,-4 0,-6l7 -33c0,0 0,0 0,-1 -3,-1 -6,-1 -9,-1 -2,2 -7,22 -7,25 0,7 3,-1 -1,17l-1 -2z"/>
   <path fill="#3B3316" d="M226 515c4,-1 1,1 4,-7l7 -1 2 7c4,-1 4,-1 3,-6 -1,-4 -5,-25 -6,-28l-4 1 -7 29c0,4 0,4 1,5z"/>
   <path fill="#1B140B" d="M211 511c0,-2 0,-3 0,-5l1 -5c9,-2 10,10 -1,10zm0 -24c5,-1 8,-1 7,5 0,4 -2,4 -7,5l0 -10zm-3 29c9,0 15,-1 14,-13 0,-3 -1,-3 -2,-5l-1 -1c2,-3 4,-7 2,-12 -2,-4 -8,-3 -13,-2 -1,4 0,26 0,33z"/>
   <path fill="#70542A" d="M322 445c20,-7 14,-1 23,-1l18 -3c2,0 5,0 6,-1 -1,-1 1,0 -1,-1 -4,-2 -5,-1 -9,-2 -8,0 -2,-2 -7,-3 0,0 -1,0 -1,0l0 1c0,0 0,1 0,1 0,0 0,0 0,0 -6,1 -11,4 -17,1 -2,-1 -1,0 -2,-2l12 -4c-3,-2 -5,-3 -8,-4 -1,1 -2,3 -3,4 -4,4 -9,9 -11,14z"/>
   <path fill="#1B140B" d="M268 506l0 -10c7,-1 8,1 7,8 -3,2 -2,2 -7,2zm5 -24c3,6 1,10 -5,10 0,-2 -1,-4 -1,-6 0,0 1,-2 1,-2 0,-2 0,-1 1,-2l4 0zm-9 29c8,0 16,0 15,-12 -1,-3 -1,-4 -2,-5 -1,0 -1,-1 -1,-1 0,0 0,0 0,0 0,0 -1,0 -1,-1 2,-2 4,-7 2,-11 -2,-5 -7,-4 -12,-3l-1 33z"/>
   <path fill="#130C0A" d="M336 275c0,0 0,4 0,4 0,3 -1,2 1,3 10,-7 17,8 24,10 -2,-11 -6,-20 -8,-29 -10,2 -10,0 -16,-3l-1 7c12,-1 12,4 16,9 1,2 1,1 2,2 0,0 1,1 1,1 2,1 1,0 2,2 -14,0 -14,-7 -21,-11l0 5z"/>
   <path fill="#1B140B" d="M175 487c6,-1 7,3 7,9 0,4 0,12 -3,14 -8,5 -7,-18 -4,-23zm0 -5c-9,3 -9,38 4,34 10,-3 9,-39 -4,-34z"/>
   <path fill="#1B140B" d="M135 507l0 -24c8,0 9,5 9,12 0,7 0,13 -9,12zm-3 -20l0 25c9,0 16,2 16,-16 0,-14 -3,-17 -16,-18l0 9z"/>
   <path fill="#462B15" d="M248 472c7,0 9,-3 13,-6 1,3 0,3 1,4 6,0 5,-2 9,-5 6,-6 3,-5 6,-8 2,6 1,7 0,11l6 -1c1,-11 6,-11 9,-16 -1,-1 -2,-2 -4,-3 -2,1 -3,2 -5,3 -5,4 -32,19 -38,20 1,1 1,1 3,1z"/>
   <path fill="#1B140B" d="M305 479c7,0 7,1 6,7 -1,2 -2,3 -6,3l0 -10zm-3 29l3 0c2,-4 -1,-10 1,-14 5,1 4,7 6,11 1,3 -1,2 4,2 0,-1 0,0 0,-2 0,-2 -3,-12 -5,-13l2 -2c1,-2 2,-3 2,-6 1,-10 -5,-11 -13,-9l0 33z"/>
   <path fill="#1B140B" d="M249 484l6 0c1,6 0,10 -6,10l0 -10zm1 14c4,1 3,3 5,8 1,4 0,6 5,6 0,-4 -3,-13 -5,-16 2,-3 5,-5 4,-12 -2,-6 -7,-5 -13,-5l0 32c0,2 -2,2 1,2 3,0 1,-1 2,-2 1,-2 -1,-9 1,-13z"/>
   <path fill="#231401" d="M127 478c-2,0 -2,0 -2,7 0,3 0,6 0,9 0,6 1,15 -6,12 -7,-4 2,-27 -4,-29 -3,-1 -1,1 -2,1l1 23c0,12 11,14 14,5 1,-4 0,-10 0,-14l0 -12c0,-3 1,-1 -1,-2z"/>
   <path fill="#1B140B" d="M86 502c-4,2 -6,0 -10,-1 0,4 -1,6 5,7 2,0 3,0 5,-1 4,-1 5,-5 4,-10 0,-11 -13,-8 -9,-18 3,-1 5,-1 8,1l0 -5c-9,-3 -15,1 -12,11 2,9 12,6 9,16z"/>
   <path fill="#1B140B" d="M284 476l0 34 12 -2 0 -3c-2,-1 -6,-1 -9,0l0 -11 8 0 1 -5 -9 1 0 -9 9 -1 0 -4 -12 0z"/>
   <path fill="#70542A" d="M117 459c3,-1 1,0 2,-3 -1,-2 -3,-5 -5,-5 -2,1 -3,1 -5,2l-3 1c-1,1 -1,1 -2,2 2,3 3,2 5,5 1,3 1,6 1,10 -4,-3 -4,-4 -8,-7 -3,-2 -5,-3 -5,-7 -3,0 -4,0 -6,2 5,5 17,14 25,13 1,-6 -3,-6 -1,-15l2 2z"/>
   <path fill="#190806" d="M120 462c4,4 4,2 7,8 3,4 0,2 3,3 1,0 1,0 1,0l0 -3c1,-1 1,-3 1,-4 2,0 7,6 10,8l5 0 0 -4c-4,-3 -9,-4 -13,-7 -3,-2 -11,-7 -14,-8l0 7z"/>
   <path fill="#1B140B" d="M152 484c2,1 1,0 2,0 0,1 1,1 1,1l2 0 0 23c-5,2 -5,-1 -5,5l13 1 0 -4 -5 -1 0 -22c0,-1 -1,0 2,-2 3,-1 3,3 3,-4l-13 -1 0 4z"/>
   <path fill="#DDB96B" d="M175 487c-3,5 -4,28 4,23 3,-2 3,-10 3,-14 0,-6 -1,-10 -7,-9z"/>
   <path fill="#E3BC73" d="M135 507c9,1 9,-5 9,-12 0,-7 -1,-12 -9,-12l0 24z"/>
   <path fill="#181606" d="M95 479l5 1 0 21c0,1 0,4 0,5 1,5 0,2 2,3 1,0 2,1 2,-6l0 -22 6 0 0 -5 -16 -1 1 4z"/>
   <path fill="#DCB464" d="M319 440c1,-6 4,-7 7,-11 2,-5 1,-11 -3,-14 -3,6 -10,19 -4,25z"/>
   <path fill="#DCB464" d="M341 295c0,1 1,1 1,1l8 8c3,4 6,6 13,6l-1 -2c-1,-1 0,0 -1,-1 -4,-5 -9,-16 -20,-12z"/>
   <path fill="#C9A868" d="M189 18c1,3 1,2 3,4 2,2 3,3 4,4l8 -7c-2,-3 -5,-6 -8,-8 -3,2 -4,4 -7,7z"/>
   <path fill="#DBBB74" d="M346 416c5,4 15,-1 20,-4 -2,-2 -7,-4 -11,-2l-9 6z"/>
   <path fill="#F3DB96" d="M27 412c6,3 14,8 20,4 -6,-4 -15,-11 -20,-4z"/>
   <path fill="#ECE5A7" d="M12 302c4,6 4,16 13,16 -5,-9 -2,-14 -13,-16z"/>
   <path fill="#E9D798" d="M355 395c6,0 8,-1 12,-3 2,-2 6,-5 7,-6 -5,-2 -8,-2 -11,1l-8 8z"/>
   <path fill="#F3DB96" d="M31 404c4,2 7,3 11,1l-9 -7c-3,-2 -8,-2 -11,1 4,2 6,4 9,5z"/>
   <path fill="#E5C787" d="M351 405c4,1 7,1 11,-1l8 -5c-1,-1 -3,-2 -5,-2 -5,0 -8,3 -14,8z"/>
   <path fill="#ECE5A7" d="M365 293c6,-2 7,-11 9,-19 -10,3 -8,9 -9,19z"/>
   <path fill="#E9D798" d="M361 279c6,-3 7,-11 8,-19 -10,3 -6,9 -8,19z"/>
   <path fill="#ECE5A7" d="M360 382c5,0 8,-1 11,-3l7 -7c-5,-1 -8,-1 -11,2l-7 8z"/>
   <path fill="#FAF4B8" d="M368 318c8,-1 10,-9 13,-16 -12,2 -8,8 -13,16z"/>
   <path fill="#F7E8A7" d="M19 274c2,9 2,16 9,19 -2,-9 1,-16 -9,-19z"/>
   <path fill="#F4EDB0" d="M363 369c7,0 8,-1 11,-4 2,-2 6,-4 6,-7 -10,-1 -9,2 -17,11z"/>
   <path fill="#F7E8A7" d="M25 374c-3,-3 -6,-3 -11,-2 1,1 1,1 2,2 6,5 9,9 17,8 -2,-2 -1,-1 -2,-2 -3,-2 -3,-3 -6,-6z"/>
   <path fill="#EBD588" d="M32 424c2,2 3,1 6,2 7,2 7,3 15,-1 -1,-1 0,0 -2,-1 -12,-5 -11,-5 -19,0z"/>
   <path fill="#E3BC85" d="M362 246c-10,4 -4,10 -6,20 7,-4 5,-11 6,-20z"/>
   <path fill="#D4B469" d="M354 233c-2,1 -5,4 -5,8 0,3 2,7 2,11 6,-4 3,-10 3,-19z"/>
   <path fill="#EBD588" d="M42 252c0,-9 5,-14 -4,-19 1,9 -2,15 4,19z"/>
   <path fill="#130C0A" d="M41 261c-1,3 0,1 1,1 4,-2 4,-3 7,-6 2,-3 6,-3 6,-6l-9 -1 -5 12z"/>
   <path fill="#190806" d="M352 263l-6 -14 -8 1c0,4 3,2 6,6 3,3 3,5 8,7z"/>
   <path fill="#DCB56B" d="M268 506c5,0 4,0 7,-2 1,-7 0,-9 -7,-8l0 10z"/>
   <path fill="#DBBB74" d="M211 511c11,0 10,-12 1,-10l-1 5c0,2 0,3 0,5z"/>
   <path fill="#DBBB7B" d="M211 497c5,-1 7,-1 7,-5 1,-6 -2,-6 -7,-5l0 10z"/>
   <path fill="#D4B469" d="M269 482c-1,1 -1,0 -1,2 0,0 -1,2 -1,2 0,2 1,4 1,6 6,0 8,-4 5,-10l-4 0z"/>
   <path fill="#DBBB74" d="M249 494c6,0 7,-4 6,-10l-6 0 0 10z"/>
   <path fill="#D6BA85" d="M305 489c4,0 5,-1 6,-3 1,-6 1,-7 -6,-7l0 10z"/>
  </g>
 </g>
</svg>