<?xml version="1.0" encoding="UTF-8"?>
<svg version="1.1" viewBox="0 0 1368 1600" width="1280" height="1280" xmlns="http://www.w3.org/2000/svg">
<path transform="translate(1199)" d="m0 0v2h2c1.62 1.37 1.62 1.37 3 3v2c0.99 0.33 1.98 0.66 3 1v2h2c1.62 1.37 1.62 1.37 3 3v2h2c1.62 1.37 1.62 1.37 3 3v2h2c0.124 1.18 0.124 1.18 0.25 2.38 0.371 1.3 0.371 1.3 0.75 2.62 1.32 0.699 2.65 1.37 4 2 0.75 2.13 0.75 2.13 1 4h2c0.33 1.65 0.66 3.3 1 5h2c2.04 2.91 3 4.4 3 8h2v4h2c0.33 1.98 0.66 3.96 1 6h2c0.33 2.64 0.66 5.28 1 8h2c3.43 8.43 3.43 8.43 3 13h2v7h2c0.199 1.5 0.199 1.5 0.402 3.03 0.177 1.29 0.353 2.58 0.535 3.91 0.261 1.93 0.261 1.93 0.527 3.9 0.197 3.01 0.197 3.01 1.54 4.16 1.14 8.13 1.34 16.3 1.61 24.5 0.0374 1.03 0.0748 2.05 0.113 3.11 0.0454 1.38 0.0454 1.38 0.0918 2.79 0.134 2.67 0.134 2.67 0.77 5.4 0.139 0.734 0.277 1.47 0.42 2.22-0.33 0.33-0.66 0.66-1 1-0.147 1.99-0.228 3.99-0.281 5.98-0.0561 1.87-0.0561 1.87-0.113 3.78-0.0348 1.32-0.0696 2.63-0.105 3.99-0.259 9.45-0.679 18.8-1.5 28.2h-2c0.0206 1.28 0.0412 2.56 0.0625 3.88 0.00809 5.09-0.472 10.1-1.06 15.1h-2v7h-2c0.0619 1.05 0.124 2.1 0.188 3.19 0.014 7.81-2.2 15.6-5.19 22.8-1.62 5.28-2.85 10.6-4 16h-2v7h-2c-0.049 0.603-0.098 1.21-0.148 1.83-0.112 1.2-0.112 1.2-0.227 2.42-0.104 1.18-0.104 1.18-0.211 2.39-0.429 2.45-1.2 4.21-2.41 6.36h-2c-0.33 3.3-0.66 6.6-1 10h-2v5h-2c-0.33 2.64-0.66 5.28-1 8h-2c-0.33 2.64-0.66 5.28-1 8h-2v3h-2c-0.33 2.64-0.66 5.28-1 8h-2v4h-2c-0.33 1.98-0.66 3.96-1 6h-2c-0.124 0.908-0.247 1.82-0.375 2.75-0.546 2.84-1.2 4.78-2.62 7.25h-2c-0.33 1.65-0.66 3.3-1 5h-2v3h-2c-0.33 2.31-0.66 4.62-1 7h-2v3c-0.66 0.33-1.32 0.66-2 1-0.652 2.02-0.652 2.02-1 4h-2c-0.124 0.578-0.247 1.16-0.375 1.75-0.631 2.27-1.51 4.18-2.62 6.25h-2c-0.33 1.65-0.66 3.3-1 5h-2c-0.124 0.578-0.247 1.16-0.375 1.75-0.631 2.27-1.51 4.18-2.62 6.25h-2c-0.124 0.578-0.247 1.16-0.375 1.75-0.631 2.27-1.51 4.18-2.62 6.25h-2c-0.103 1.11-0.206 2.23-0.312 3.38-0.227 1.2-0.454 2.39-0.688 3.62-0.99 0.66-1.98 1.32-3 2-1.19 2.05-1.19 2.05-2 4h-2c-0.144 0.578-0.289 1.16-0.438 1.75-0.186 0.742-0.371 1.48-0.562 2.25-0.144 0.722-0.289 1.44-0.438 2.19-0.186 0.598-0.371 1.2-0.562 1.81-0.66 0.33-1.32 0.66-2 1-1.13 2.02-1.13 2.02-2 4h-2v4c-0.66 0.33-1.32 0.66-2 1-0.495 0.846-0.99 1.69-1.5 2.56-0.495 0.804-0.99 1.61-1.5 2.44h-2c-0.103 1.11-0.206 2.23-0.312 3.38-0.227 1.2-0.454 2.39-0.688 3.62-0.99 0.66-1.98 1.32-3 2-1.19 2.05-1.19 2.05-2 4h-2c-0.33 1.65-0.66 3.3-1 5h-2c-0.124 0.578-0.247 1.16-0.375 1.75-0.631 2.27-1.51 4.18-2.62 6.25h-2v2h-2c-0.33 1.65-0.66 3.3-1 5h-2c-0.124 0.578-0.247 1.16-0.375 1.75-0.639 2.3-1.42 4.19-2.62 6.25-0.66 0.33-1.32 0.66-2 1-0.144 0.639-0.289 1.28-0.438 1.94-0.562 2.06-0.562 2.06-3.56 4.06-1.19 2.05-1.19 2.05-2 4h-2v4c-0.66 0.33-1.32 0.66-2 1-1.12 1.88-1.12 1.88-2.12 4.06-0.353 0.733-0.706 1.47-1.07 2.22-0.266 0.566-0.531 1.13-0.805 1.71h-2v2h-2c-0.33 1.65-0.66 3.3-1 5h-2c-0.124 0.578-0.247 1.16-0.375 1.75-0.631 2.27-1.51 4.18-2.62 6.25h-2c-0.33 1.65-0.66 3.3-1 5h-2v2h-2c-0.124 0.578-0.247 1.16-0.375 1.75-1.07 3.83-2.54 6.68-5.62 9.25h-2c-0.124 0.578-0.247 1.16-0.375 1.75-0.631 2.27-1.51 4.18-2.62 6.25h-2c-0.33 1.65-0.66 3.3-1 5h-2v2h-2c-0.33 1.65-0.66 3.3-1 5h-2v3h-2c-0.103 0.763-0.206 1.53-0.312 2.31-0.735 2.87-1.36 3.92-3.69 5.69h-2c-0.124 0.578-0.247 1.16-0.375 1.75-0.631 2.27-1.51 4.18-2.62 6.25h-2v2h-2c-0.33 1.98-0.66 3.96-1 6h-2c-0.402 0.959-0.402 0.959-0.812 1.94-1.19 2.06-1.19 2.06-4.19 3.06-0.33 1.65-0.66 3.3-1 5h-2c-0.124 0.578-0.247 1.16-0.375 1.75-0.631 2.27-1.51 4.18-2.62 6.25h-2v2h-2c-0.103 0.784-0.206 1.57-0.312 2.38-0.688 2.62-0.688 2.62-3.69 4.62-1.44 2.18-1.44 2.18-2.69 4.62-0.437 0.817-0.874 1.63-1.32 2.48-0.326 0.626-0.652 1.25-0.988 1.9h-2v2h-2c-0.33 1.65-0.66 3.3-1 5h-2c-0.124 0.578-0.247 1.16-0.375 1.75-0.631 2.27-1.51 4.18-2.62 6.25h-2c-0.33 0.99-0.66 1.98-1 3h-2c-0.124 0.578-0.247 1.16-0.375 1.75-0.631 2.27-1.51 4.18-2.62 6.25h-2v2h-2c-0.33 1.65-0.66 3.3-1 5h-2v2h-2c-0.124 0.557-0.247 1.11-0.375 1.69-0.685 2.53-1.62 4.89-2.62 7.31h-3v2h-2c-0.33 1.65-0.66 3.3-1 5h-2c-0.103 0.598-0.206 1.2-0.312 1.81-0.792 2.52-1.81 3.38-3.69 5.19-1.18 2.1-1.18 2.1-2 4h-2v4c-1.38 1.75-1.38 1.75-3 3h-2c-0.124 0.578-0.247 1.16-0.375 1.75-0.631 2.27-1.51 4.18-2.62 6.25h-2v2c-0.66 0.33-1.32 0.66-2 1-0.165 0.66-0.33 1.32-0.5 2-0.165 0.66-0.33 1.32-0.5 2-0.66 0.33-1.32 0.66-2 1-0.33 0.99-0.66 1.98-1 3h-2v2h-2c-0.33 1.65-0.66 3.3-1 5h-2v2h-2c-0.103 0.557-0.206 1.11-0.312 1.69-0.829 2.79-2.03 4.93-3.69 7.31h-2v2h-2c-0.33 1.65-0.66 3.3-1 5h-2v2h-2c-0.124 0.557-0.247 1.11-0.375 1.69-0.685 2.53-1.62 4.89-2.62 7.31h-3v2h-2c-0.33 1.65-0.66 3.3-1 5h-2v2h-2c-0.124 0.578-0.247 1.16-0.375 1.75-1.07 3.83-2.54 6.68-5.62 9.25h-2c-0.33 1.65-0.66 3.3-1 5h-2v3h-2c-0.33 0.99-0.66 1.98-1 3h-2v4c-1.38 1.75-1.38 1.75-3 3h-2c-0.124 0.578-0.247 1.16-0.375 1.75-0.631 2.27-1.51 4.18-2.62 6.25h-2c-0.33 0.99-0.66 1.98-1 3h-2v4c-1.38 1.75-1.38 1.75-3 3h-2c-0.124 0.578-0.247 1.16-0.375 1.75-0.631 2.27-1.51 4.18-2.62 6.25h-2v2c-0.66 0.33-1.32 0.66-2 1-0.144 0.619-0.289 1.24-0.438 1.88-0.667 2.52-1.54 3.51-3.56 5.12h-2v3h-2c-0.33 1.65-0.66 3.3-1 5h-2v2c-0.66 0.33-1.32 0.66-2 1-0.144 0.619-0.289 1.24-0.438 1.88-0.667 2.52-1.54 3.51-3.56 5.12h-2v3h-2c-0.33 1.65-0.66 3.3-1 5h-2v2c-0.66 0.33-1.32 0.66-2 1-1.63 2.55-3.09 5.17-4.56 7.81l-1.44 2.19h-2c-0.33 0.99-0.66 1.98-1 3h-2v4c-0.66 0.33-1.32 0.66-2 1-1.63 2.55-3.09 5.17-4.56 7.81l-1.44 2.19h-2c-0.33 0.99-0.66 1.98-1 3h-2c-0.124 0.598-0.247 1.2-0.375 1.81-0.625 2.19-0.625 2.19-2.62 5.19h-2v3h-2c-0.33 0.99-0.66 1.98-1 3h-2v4c-0.66 0.33-1.32 0.66-2 1-1.34 2.47-2.5 5.01-3.68 7.55-1.24 2.3-2.29 3.81-4.32 5.45h-2c-0.124 0.598-0.247 1.2-0.375 1.81-0.625 2.19-0.625 2.19-2.62 5.19h-2v3h-2c-0.33 0.99-0.66 1.98-1 3h-2c-0.33 1.65-0.66 3.3-1 5h-2v2h-2c-0.103 0.784-0.206 1.57-0.312 2.38-0.688 2.62-0.688 2.62-3.69 4.62-1.19 2.05-1.19 2.05-2 4h-2c-0.268 0.639-0.536 1.28-0.812 1.94-1.19 2.06-1.19 2.06-4.19 3.06-0.685 1.32-1.35 2.66-2 4-2 2.25-2 2.25-4 4h-2c-0.268 0.639-0.536 1.28-0.812 1.94-1.19 2.06-1.19 2.06-4.19 3.06-0.681 1.33-1.34 2.66-2 4-1.45 1.63-2.95 3.21-4.5 4.75-0.794 0.799-1.59 1.6-2.41 2.42-2.09 1.83-2.09 1.83-4.09 1.83-0.268 0.639-0.536 1.28-0.812 1.94-1.19 2.06-1.19 2.06-4.19 3.06-0.289 0.578-0.578 1.16-0.875 1.75-1.52 3.03-3.68 4.92-6.12 7.25-1.08 1.14-1.08 1.14-2.19 2.31-1.81 1.69-1.81 1.69-3.81 1.69-0.237 0.562-0.474 1.12-0.719 1.7-1.57 2.82-3.5 4.78-5.78 7.05-0.794 0.799-1.59 1.6-2.41 2.42-2.09 1.83-2.09 1.83-4.09 1.83-0.268 0.639-0.536 1.28-0.812 1.94-1.19 2.06-1.19 2.06-4.19 3.06-0.681 1.33-1.34 2.66-2 4-1.45 1.63-2.95 3.21-4.5 4.75-0.794 0.799-1.59 1.6-2.41 2.42-2.09 1.83-2.09 1.83-4.09 1.83-0.271 0.596-0.543 1.19-0.822 1.81-1.16 2.16-2.3 3.58-4.02 5.31-0.571 0.58-1.14 1.16-1.73 1.76-0.615 0.614-1.23 1.23-1.86 1.86-0.634 0.638-1.27 1.28-1.92 1.93-1.34 1.34-2.68 2.69-4.02 4.02-2.06 2.06-4.1 4.12-6.15 6.19-1.3 1.3-2.6 2.61-3.91 3.91-0.613 0.622-1.23 1.24-1.86 1.88-4.37 4.32-4.37 4.32-7.71 4.32v2c-1.6 0.673-3.21 1.34-4.81 2l-2.71 1.12c-2.48 0.875-2.48 0.875-5.48 0.875v2h-3v3h-7v2h-3v2l-5 1v2c-2.91 2.04-4.4 3-8 3v2l-5 1v2h-3v2l-5 1v2h-2v2l-5 1-1 3c-1.32 0.699-2.65 1.37-4 2l-1 2c-1.33 0.333-2.67 0.667-4 1l-1 2h-2v2c-2.43 1.6-4.95 2.97-7.5 4.38-2.68 1.61-2.68 1.61-5.12 4.31-2.38 2.31-2.38 2.31-5.38 2.31l-1 3h-2v2h-2l-1 3h-2v2l-2.12 1.19c-2.58 1.63-3.81 2.76-5.69 5.06-2.83 3.46-5.97 6.29-9.36 9.18-4.34 3.64-4.34 3.64-6.83 8.57-1.32 0.69-2.66 1.35-4 2-1.5 1.5-1.5 1.5-2.81 3.25-2.65 3.24-5.52 5.87-8.77 8.49-1.55 1.23-1.55 1.23-2.42 3.26h-2v3h-2l-1 3h-2v2l-2 1-0.438 1.88c-0.667 2.52-1.54 3.51-3.56 5.12h-2v2h-2l-0.25 1.69c-0.977 3.01-2.72 4.91-4.75 7.31l-1 2h-2l-0.375 1.81c-0.625 2.19-0.625 2.19-2.62 5.19h-2l-0.375 1.75c-0.631 2.27-1.51 4.18-2.62 6.25h-2c-0.33 1.65-0.66 3.3-1 5h-2v3h-2c-0.33 1.65-0.66 3.3-1 5h-2c-0.33 1.98-0.66 3.96-1 6h-2v2h-2c-0.33 1.65-0.66 3.3-1 5h-2l-0.375 1.62c-2.11 8.03-2.11 8.03-5.62 10.4-1.21 3.05-1.21 3.05-2 6h-2c-0.33 1.98-0.66 3.96-1 6h-2v4c-0.66 0.33-1.32 0.66-2 1-1.05 2.31-2.06 4.64-3 7h-2c-0.33 1.98-0.66 3.96-1 6h-2c-0.33 2.31-0.66 4.62-1 7h-2v3h-2c-0.33 2.31-0.66 4.62-1 7h-2v3h-2l-0.375 2.69c-0.569 3.02-1.39 5.52-2.62 8.31h-2c-0.33 2.31-0.66 4.62-1 7h-2c-0.33 1.98-0.66 3.96-1 6h-2v4h-2c-0.33 2.64-0.66 5.28-1 8h-2l-0.375 1.62c-0.747 2.84-1.68 5.6-2.62 8.38h-2v5h-2c-0.33 1.98-0.66 3.96-1 6h-2c-0.33 2.64-0.66 5.28-1 8h-2l-0.434 1.73c-0.855 3.42-1.71 6.84-2.57 10.3h-2v5h-2c-0.33 2.97-0.66 5.94-1 9h-2c-0.33 2.31-0.66 4.62-1 7h-2v3h-2c-0.33 2.64-0.66 5.28-1 8h-2l0.25 1.94c-0.304 3.72-1.59 6.31-3.16 9.66-2.36 5.24-4.17 10.7-5.09 16.4h-2c-0.33 2.64-0.66 5.28-1 8h-2v5h-2c-0.33 3.3-0.66 6.6-1 10h-2v5h-2c-0.33 3.63-0.66 7.26-1 11h-2c-0.33 3.3-0.66 6.6-1 10h-2v5h-2c-0.33 2.64-0.66 5.28-1 8h-2l-0.434 1.73c-0.855 3.42-1.71 6.84-2.57 10.3h-2v3h-2l-0.25 2.5c-0.914 4.27-2.67 7.69-4.75 11.5h-2c-0.33 1.65-0.66 3.3-1 5h-2v4h-2l-0.25 1.69c-0.977 3.01-2.72 4.91-4.75 7.31-0.33 0.66-0.66 1.32-1 2h-2c-0.33 1.65-0.66 3.3-1 5h-2v2c-0.66 0.33-1.32 0.66-2 1l-1.25 2.12c-2.87 4.72-6.14 8.8-10.8 11.9-1.19 2.05-1.19 2.05-2 4h-2v2c-1.31 1.62-1.31 1.62-3 3h-3v2c-1.61 1.69-1.61 1.69-3.75 3.56l-2.11 1.88c-2.12 1.54-3.58 2.14-6.14 2.56v2c-4.35 4-4.35 4-8 4v2h-2v2c-2.91 2.04-4.4 3-8 3-0.33 0.99-0.66 1.98-1 3h-4v2c-1.98 0.33-3.96 0.66-6 1v2c-6.63 3-6.63 3-10 3v2h-3v2l-2.67 0.805c-1.16 0.353-2.32 0.706-3.52 1.07-1.15 0.348-2.3 0.696-3.48 1.05-3.26 1-3.26 1-6.08 2.2-2.55 0.993-4.53 1.03-7.25 0.875v2c-1.5 0.199-1.5 0.199-3.03 0.402-1.29 0.177-2.58 0.353-3.91 0.535-1.93 0.261-1.93 0.261-3.9 0.527-3.01 0.197-3.01 0.197-4.16 1.54-1.69 0.0721-3.38 0.0839-5.06 0.0625-0.919-0.00902-1.84-0.018-2.79-0.0273-0.71-0.0116-1.42-0.0232-2.15-0.0352v2c-6.68 0.0253-13.4 0.0428-20 0.0549-2.27 0.00504-4.55 0.0119-6.82 0.0205-3.26 0.0121-6.52 0.0178-9.78 0.0222-1.02 0.00516-2.05 0.0103-3.1 0.0156-0.941 7.55e-5 -1.88 1.51e-4 -2.85 2.29e-4 -0.833 0.00222-1.67 0.00444-2.52 0.00673-1.9-0.12-1.9-0.12-2.9-1.12-1.85-0.234-3.7-0.413-5.56-0.562-1.52-0.126-1.52-0.126-3.07-0.254l-2.37-0.184v-2l-13-1v-2l-10-1v-2h-5v-2c-2.64-0.33-5.28-0.66-8-1v-2h-3v-2l-8-1v-2c-2.52-1.02-5.05-2.02-7.61-2.96-0.852-0.321-1.7-0.642-2.58-0.973l-2.61-0.965c-2.21-1.1-2.21-1.1-4.21-4.1-2.05-1.19-2.05-1.19-4-2v-2h-4c-1.75-1.37-1.75-1.37-3-3v-2c-0.557-0.0619-1.11-0.124-1.69-0.188-3.3-1.16-5.03-3.21-7.31-5.81v-2h-3v-2c-0.99-0.33-1.98-0.66-3-1v-2l-1.94-0.812c-2.06-1.19-2.06-1.19-3.06-4.19-0.99-0.33-1.98-0.66-3-1v-2h-2v-2c-0.99-0.33-1.98-0.66-3-1v-2h-2v-2h-2c-0.495-1.49-0.495-1.49-1-3-1.27-1.24-1.27-1.24-2.56-2.5-2.44-2.5-2.44-2.5-2.44-5.5h-2v-2h-3v-3h-2l-1-5h-2v-3h-2l-1-5h-2c-2.04-2.91-3-4.4-3-8h-2l-1.38-3.44c-1.2-3.61-1.2-3.61-3.62-4.56-0.407-2.32-0.744-4.66-1-7h-2c-2.14-7.43-2.14-7.43-3-11h-2l-1-8h-2v-5h-2l-1-10h-2v-5h-2l-1-13h-2c-0.199-1.82-0.199-1.82-0.402-3.68-0.178-1.58-0.357-3.17-0.535-4.75l-0.264-2.43c-0.104-3.89-0.104-3.89-1.8-7.13-0.0723-1.85-0.0838-3.71-0.0625-5.56 0.00902-1.01 0.018-2.02 0.0273-3.07 0.0116-0.782 0.0232-1.56 0.0352-2.37h-2v-59h2v-13h2l1-16h2l1-13h2v-5h2c0.495-4.95 0.495-4.95 1-10h2v-4h2l1-9h2c0.168-0.766 0.168-0.766 0.34-1.55 0.888-3.3 2.06-6.49 3.22-9.7l0.709-1.97c0.574-1.59 1.15-3.19 1.73-4.78h2v-3h2l1-5h2l0.375-1.75c0.631-2.27 1.51-4.18 2.62-6.25h2l1-5h2l0.375-1.75c0.631-2.27 1.51-4.18 2.62-6.25h2v-2h2c0.0928-1.08 0.0928-1.08 0.188-2.19 1.07-3.7 2.92-5.34 5.81-7.81h2l0.254-1.73c0.967-2.94 2.48-4.37 4.68-6.52l2.15-2.14c1.91-1.61 1.91-1.61 3.91-1.61 0.231-0.556 0.461-1.11 0.699-1.68 1.65-2.94 3.72-5 6.11-7.38 1.28-1.29 1.28-1.29 2.58-2.6 2.43-2.18 4.78-3.73 7.61-5.34l3-3h2v-2c1.25-1.62 1.25-1.62 3-3h4l1-3c1.32-0.699 2.65-1.37 4-2l1-2c2.33-1 4.67-2 7-3l1-2c2.32-0.407 4.66-0.744 7-1v-2h3v-2l8-1v-2c2.64-0.33 5.28-0.66 8-1v-2h4v-2l11-1v-2h7v-2c1.22-0.133 2.43-0.266 3.68-0.402 1.58-0.178 3.17-0.357 4.75-0.535 0.802-0.087 1.6-0.174 2.43-0.264 3.89-0.104 3.89-0.104 7.13-1.8 1.47-0.0982 2.94-0.128 4.41-0.129 1.41-0.00473 1.41-0.00473 2.84-0.00955 1.02 0.00202 2.04 0.00405 3.09 0.00613 1.56-0.00144 1.56-0.00144 3.15-0.0029 2.2-6.82e-4 4.41 0.00117 6.61 0.00534 3.38 0.00535 6.77 5.55e-5 10.2-0.00635 2.13 6.61e-4 4.27 0.00194 6.4 0.00391 1.53-0.00304 1.53-0.00304 3.09-0.00613 0.938 0.00315 1.88 0.0063 2.84 0.00955 1.24 0.00119 1.24 0.00119 2.51 0.00241 1.9 0.127 1.9 0.127 2.9 1.13 2.86 0.4 5.7 0.752 8.56 1.06l2.44 0.275c2 0.225 4 0.444 5.99 0.662v2h7v2l10 1v2c0.66 0.124 1.32 0.248 2 0.375 3.7 0.77 7.34 1.69 11 2.62v2c1.98 0.33 3.96 0.66 6 1v2l1.62 0.375c2.84 0.747 5.6 1.68 8.38 2.62v2l1.75 0.375c2.27 0.631 4.18 1.51 6.25 2.62v2l1.7 0.34c2.61 0.751 4.69 1.87 7.05 3.22l2.42 1.38 1.83 1.06v2h2c0.33 0.66 0.66 1.32 1 2l1.75 0.312c3.33 1.02 4.99 3.12 7.25 5.69v2l1.88 0.25c2.12 0.75 2.12 0.75 3.19 2.75 0.309 0.66 0.619 1.32 0.938 2 0.99 0.33 1.98 0.66 3 1v2h2v2h2c4.77 4.3 4.77 4.3 6 8 3.44 3.83 3.44 3.83 8 6v2h4v2c2.97-0.66 5.94-1.32 9-2v-2c1.97-2.35 3-3 6-4 0.702-1.32 1.37-2.65 2-4 1.5-1.75 1.5-1.75 3-3h2l0.375-1.75c0.631-2.27 1.51-4.18 2.62-6.25h2v-2h2c0.33-1.65 0.66-3.3 1-5h2c0.33-1.98 0.66-3.96 1-6h2v-2h2l0.375-2.75c0.55-2.86 1.09-4.81 2.62-7.25 0.66-0.33 1.32-0.66 2-1 0.652-2.02 0.652-2.02 1-4h2c0.112-0.531 0.224-1.06 0.34-1.61 0.829-3 2.01-5.77 3.22-8.64 0.455-1.08 0.91-2.16 1.38-3.27 0.349-0.82 0.699-1.64 1.06-2.48h2l0.375-1.62c2.11-8.03 2.11-8.03 5.62-10.4 1.21-3.05 1.21-3.05 2-6h2c0.33-1.98 0.66-3.96 1-6h2v-3h2c0.33-2.31 0.66-4.62 1-7h2v-4h2c0.33-1.98 0.66-3.96 1-6h2l0.375-1.62c0.747-2.84 1.68-5.6 2.62-8.38h2c0.33-1.98 0.66-3.96 1-6h2v-4h2c0.33-1.98 0.66-3.96 1-6h2l0.375-1.62c0.747-2.84 1.68-5.6 2.62-8.38h2l0.375-2.75c0.546-2.84 1.2-4.78 2.62-7.25h2c0.33-1.98 0.66-3.96 1-6h2v-4h2c0.33-2.31 0.66-4.62 1-7h2l0.375-2.12c0.663-3.05 1.6-5.93 2.62-8.88h2c0.33-1.98 0.66-3.96 1-6h2l0.375-1.62c0.747-2.84 1.68-5.6 2.62-8.38h2l0.375-1.62c2.11-8.03 2.11-8.03 5.62-10.4 1.21-3.05 1.21-3.05 2-6h2c0.33-1.98 0.66-3.96 1-6h2v-4h2c0.33-1.98 0.66-3.96 1-6h2l0.375-1.62c0.747-2.84 1.68-5.6 2.62-8.38h2l0.25-2.88 0.75-3.12c0.66-0.309 1.32-0.619 2-0.938 0.66-0.351 1.32-0.701 2-1.06 0.819-3.56 0.819-3.56 1-7h2v-3h2c0.33-1.65 0.66-3.3 1-5h2l0.375-1.75c0.631-2.27 1.51-4.18 2.62-6.25h2l0.25-2.88 0.75-3.12c1.32-0.699 2.65-1.37 4-2 0.812-2.56 0.812-2.56 1-5h2l0.375-1.75c0.631-2.27 1.51-4.18 2.62-6.25h2l0.312-3.38 0.688-3.62 3-2c1.19-2.05 1.19-2.05 2-4h2l0.379-1.74c0.637-2.32 1.49-4.3 2.56-6.45l1.03-2.11c1.04-1.71 1.04-1.71 3.04-2.71l1-4 2-1c0.727-1.98 1.4-3.98 2-6h2c0.268-0.969 0.536-1.94 0.812-2.94 0.588-1.52 0.588-1.52 1.19-3.06 0.99-0.33 1.98-0.66 3-1l1-5h2l0.375-1.75c0.631-2.27 1.51-4.18 2.62-6.25h2l1-5h2v-2h2l1-6h2c0.309-0.784 0.619-1.57 0.938-2.38 1.06-2.63 1.06-2.63 2.06-4.62h2l1-5h2v-3h2l1-5h2v-2h2l0.312-1.69c0.829-2.79 2.03-4.93 3.69-7.31h2v-4l2-1c1.61-2.52 3.05-5.09 4.44-7.75 1.56-2.25 1.56-2.25 3.75-3.06 0.897-0.0928 0.897-0.0928 1.81-0.188l1-6h2l0.375-1.75c0.639-2.3 1.42-4.19 2.62-6.25l2-1c0.144-0.639 0.289-1.28 0.438-1.94 0.562-2.06 0.562-2.06 3.56-4.06 1.19-2.05 1.19-2.05 2-4h2l1-5h2l0.375-1.81c0.625-2.19 0.625-2.19 2.62-5.19h2v-3h2l1-3h2l0.375-1.81c0.625-2.19 0.625-2.19 2.62-5.19h2l0.375-1.75c1.07-3.83 2.54-6.68 5.62-9.25h2l0.375-1.81c0.625-2.19 0.625-2.19 2.62-5.19h2l0.25-1.88c0.248-0.701 0.495-1.4 0.75-2.12l2-0.938 2-1.06c0.812-2.56 0.812-2.56 1-5l4-1 1-6h2v-3h2l1-3h2l1-5h2v-2h2l0.25-2.25c0.896-3.29 2.26-4.5 4.75-6.75l1-2h2v-2h2l0.375-2.44 0.625-2.56 2-1c0.495-0.846 0.99-1.69 1.5-2.56l1.5-2.44h2c0.33-1.65 0.66-3.3 1-5h2v-2c0.66-0.33 1.32-0.66 2-1 0.144-0.619 0.289-1.24 0.438-1.88 0.667-2.52 1.54-3.51 3.56-5.12h2v-3h2c0.33-0.99 0.66-1.98 1-3h2v-4c1.38-1.75 1.38-1.75 3-3h2c0.0825-0.557 0.165-1.11 0.25-1.69 0.977-3.01 2.72-4.91 4.75-7.31 0.33-0.66 0.66-1.32 1-2h2v-2h2c0.33-1.65 0.66-3.3 1-5h2v-2h2c0.103-0.557 0.206-1.11 0.312-1.69 0.829-2.79 2.03-4.93 3.69-7.31h2v-2h2c0.124-1.14 0.124-1.14 0.25-2.31 0.911-3.26 2.03-3.82 4.75-5.69 0.33-0.99 0.66-1.98 1-3h2c1.21-2.33 2.17-4.5 3-7h2c0.33-0.99 0.66-1.98 1-3h2c0.124-0.598 0.247-1.2 0.375-1.81 0.625-2.19 0.625-2.19 2.62-5.19h2v-3h2c0.33-0.99 0.66-1.98 1-3h2c0.33-1.65 0.66-3.3 1-5h2v-2h2c0.103-0.784 0.206-1.57 0.312-2.38 0.688-2.62 0.688-2.62 3.69-4.62 1.19-2.05 1.19-2.05 2-4h2v-2h2c0.33-1.32 0.66-2.64 1-4h2c0.268-0.928 0.536-1.86 0.812-2.81 1.13-3.04 1.88-4.08 4.19-6.19 0.33-0.99 0.66-1.98 1-3h2v-2c0.66-0.33 1.32-0.66 2-1 0.124-0.619 0.247-1.24 0.375-1.88 0.826-2.81 2.3-3.45 4.62-5.12 0.33-0.99 0.66-1.98 1-3h2c1.21-2.33 2.17-4.5 3-7 1.44-1.69 1.44-1.69 3-3h2c0.124-0.598 0.247-1.2 0.375-1.81 0.625-2.19 0.625-2.19 2.62-5.19h2c0.33-1.32 0.66-2.64 1-4h2v-2h2c0.33-1.65 0.66-3.3 1-5h2v-2h2c0.0825-0.557 0.165-1.11 0.25-1.69 0.977-3.01 2.72-4.91 4.75-7.31 0.33-0.66 0.66-1.32 1-2h2c0.33-1.65 0.66-3.3 1-5h2v-2c0.66-0.33 1.32-0.66 2-1 0.712-1.24 0.712-1.24 1.44-2.5 1.56-2.5 1.56-2.5 4.56-3.5v-4h2c0.33-0.99 0.66-1.98 1-3h2v-4c1.38-1.75 1.38-1.75 3-3h2v-3h2c0.33-0.99 0.66-1.98 1-3h2v-4c1.38-1.75 1.38-1.75 3-3h2c0.103-0.784 0.206-1.57 0.312-2.38 0.688-2.62 0.688-2.62 3.69-4.62 1.19-2.05 1.19-2.05 2-4h2v-2h2c0.124-0.804 0.247-1.61 0.375-2.44 0.206-0.846 0.412-1.69 0.625-2.56 0.66-0.33 1.32-0.66 2-1 0.186-0.928 0.186-0.928 0.375-1.88 0.826-2.81 2.3-3.45 4.62-5.12 0.33-0.99 0.66-1.98 1-3h2v-2c0.66-0.33 1.32-0.66 2-1 0.186-0.928 0.186-0.928 0.375-1.88 0.826-2.81 2.3-3.45 4.62-5.12 0.33-0.99 0.66-1.98 1-3h2c1.21-2.33 2.17-4.5 3-7 1.44-1.69 1.44-1.69 3-3h2c0.186-0.897 0.186-0.897 0.375-1.81 0.625-2.19 0.625-2.19 2.62-5.19h2l0.25-1.88c0.247-0.701 0.495-1.4 0.75-2.12 0.66-0.309 1.32-0.619 2-0.938l2-1.06c0.812-2.56 0.812-2.56 1-5h2v-2h2c0.0825-0.742 0.165-1.48 0.25-2.25 0.896-3.29 2.26-4.5 4.75-6.75 0.33-0.66 0.66-1.32 1-2h2c0.33-1.65 0.66-3.3 1-5h2v-2c0.66-0.33 1.32-0.66 2-1 1.63-2.55 3.09-5.17 4.56-7.81 0.712-1.08 0.712-1.08 1.44-2.19h2v-2c0.66-0.33 1.32-0.66 2-1 0.144-0.619 0.289-1.24 0.438-1.88 0.667-2.52 1.54-3.51 3.56-5.12h2v-3h2c1.21-2.33 2.17-4.5 3-7 1.44-1.69 1.44-1.69 3-3h2c0.0825-0.742 0.165-1.48 0.25-2.25 0.896-3.29 2.26-4.5 4.75-6.75 0.33-0.66 0.66-1.32 1-2h2v-2h2c0.33-1.65 0.66-3.3 1-5h2v-2h2c0.103-0.557 0.206-1.11 0.312-1.69 0.829-2.79 2.03-4.93 3.69-7.31h2v-2h2c0.0825-0.763 0.165-1.53 0.25-2.31 0.923-3.31 2.01-3.75 4.75-5.69 1.61-2.38 1.61-2.38 3-5 1.56-2.81 1.56-2.81 3-5h2c0.33-0.99 0.66-1.98 1-3h2c0.186-0.897 0.186-0.897 0.375-1.81 0.625-2.19 0.625-2.19 2.62-5.19h2c0.124-0.928 0.124-0.928 0.25-1.88 0.247-0.701 0.495-1.4 0.75-2.12 0.66-0.309 1.32-0.619 2-0.938l2-1.06c0.745-2.48 0.745-2.48 1-5 0.33-0.66 0.66-1.32 1-2h2c0.124-0.928 0.124-0.928 0.25-1.88 0.247-0.701 0.495-1.4 0.75-2.12 0.66-0.309 1.32-0.619 2-0.938 0.66-0.351 1.32-0.701 2-1.06 0.812-2.56 0.812-2.56 1-5h2v-2h2c0.33-1.32 0.66-2.64 1-4h2c0.268-0.928 0.536-1.86 0.812-2.81 1.13-3.04 1.88-4.08 4.19-6.19 0.33-0.99 0.66-1.98 1-3h2v-2c0.66-0.33 1.32-0.66 2-1 0.144-0.619 0.289-1.24 0.438-1.88 0.667-2.52 1.54-3.51 3.56-5.12h2c0.103-0.598 0.206-1.2 0.312-1.81 0.787-2.5 1.82-3.4 3.69-5.19 0.33-0.99 0.66-1.98 1-3 1.44-1.69 1.44-1.69 3-3h2c0.33-1.65 0.66-3.3 1-5h2v-2h2c0.0825-0.619 0.165-1.24 0.25-1.88 0.371-1.05 0.371-1.05 0.75-2.12 0.66-0.309 1.32-0.619 2-0.938 0.66-0.351 1.32-0.701 2-1.06 0.812-2.56 0.812-2.56 1-5h2v-2h2c0.103-0.557 0.206-1.11 0.312-1.69 0.829-2.79 2.03-4.93 3.69-7.31h2v-2h2c0.33-1.65 0.66-3.3 1-5h2v-2c0.66-0.33 1.32-0.66 2-1 0.474-0.825 0.949-1.65 1.44-2.5 1.56-2.5 1.56-2.5 4.56-3.5v-4h2c0.33-0.99 0.66-1.98 1-3h2v-4c1.38-1.75 1.38-1.75 3-3h2c0.0825-0.619 0.165-1.24 0.25-1.88 0.371-1.05 0.371-1.05 0.75-2.12 0.66-0.309 1.32-0.619 2-0.938 0.66-0.351 1.32-0.701 2-1.06 0.812-2.56 0.812-2.56 1-5h2v-2h2c0.103-0.784 0.206-1.57 0.312-2.38 0.688-2.62 0.688-2.62 3.69-4.62 1.19-2.05 1.19-2.05 2-4h2c0.402-1.14 0.402-1.14 0.812-2.31 1.16-2.63 2.21-3.71 4.19-5.69 0.144-0.66 0.289-1.32 0.438-2 0.767-2.73 2.31-3.38 4.56-5 0.33-0.99 0.66-1.98 1-3h2v-2h2c0.103-0.763 0.206-1.53 0.312-2.31 0.735-2.87 1.36-3.92 3.69-5.69h2c0.103-0.598 0.206-1.2 0.312-1.81 0.787-2.5 1.82-3.4 3.69-5.19 0.33-0.99 0.66-1.98 1-3 1.44-1.69 1.44-1.69 3-3h2c0.186-0.897 0.186-0.897 0.375-1.81 0.625-2.19 0.625-2.19 2.62-5.19h2c0.0825-0.619 0.165-1.24 0.25-1.88 0.247-0.701 0.495-1.4 0.75-2.12 0.66-0.309 1.32-0.619 2-0.938 0.66-0.351 1.32-0.701 2-1.06 0.812-2.56 0.812-2.56 1-5h2v-2h2c0.124-0.804 0.247-1.61 0.375-2.44 0.206-0.846 0.412-1.69 0.625-2.56 0.66-0.33 1.32-0.66 2-1 0.495-0.846 0.99-1.69 1.5-2.56 0.495-0.804 0.99-1.61 1.5-2.44h2c0.33-1.65 0.66-3.3 1-5h2v-2c0.66-0.33 1.32-0.66 2-1 0.124-0.619 0.247-1.24 0.375-1.88 0.826-2.81 2.3-3.45 4.62-5.12 0.33-0.99 0.66-1.98 1-3h2c0.33-0.99 0.66-1.98 1-3h2v-4c1.38-1.75 1.38-1.75 3-3h2c0.103-0.598 0.206-1.2 0.312-1.81 0.792-2.52 1.81-3.38 3.69-5.19 1.18-2.1 1.18-2.1 2-4h2v-2h2c0.0619-0.722 0.124-1.44 0.188-2.19 1.54-5.34 4.3-7.81 9.81-7.81zm-526 801v2h-7v2c-2.02 0.163-4.04 0.326-6.05 0.488-2.34 0.386-2.34 0.386-3.95 3.51-2.12 1.19-2.12 1.19-4 2v2l-5 1v2h-2v2c-0.99 0.33-1.98 0.66-3 1v2h-2l-1 5h-2v3h-2l-1 5h-2v5h-2c-1.31 5.97-1.15 11.9-1.12 18l-0.0117 3.23c0.00625 5.03 0.0568 9.83 1.14 14.8h2v6h2c0.33 1.32 0.66 2.64 1 4h2l0.375 1.75c0.631 2.27 1.51 4.18 2.62 6.25h2c0.268 0.639 0.536 1.28 0.812 1.94 1.07 2.39 1.07 2.39 4.19 3.06 0.309 0.66 0.619 1.32 0.938 2 0.883 2.21 0.883 2.21 3.19 2.75 0.619 0.0825 1.24 0.165 1.88 0.25v2l5 1v2c6.28 2.64 6.28 2.64 13 3v2h10v2h6v-2h10v-2c0.603-0.049 1.21-0.098 1.83-0.148l2.42-0.227 2.39-0.211c2.45-0.429 4.21-1.2 6.36-2.41v-2c1.65-0.33 3.3-0.66 5-1v-2c0.619-0.0825 1.24-0.165 1.88-0.25 2.8-0.988 2.87-2.15 4.12-4.75 1.33-0.683 2.66-1.35 4-2l1-3c0.99-0.33 1.98-0.66 3-1 0.699-1.32 1.37-2.65 2-4 0.66-0.33 1.32-0.66 2-1 0.658-3.03 0.658-3.03 1-6h2v-6h2c0.862-3.73 1.13-7.18 1.13-11 0.00129-1.13 0.00258-2.27 0.00391-3.44-0.00387-1.18-0.00773-2.35-0.0117-3.56 0.00387-1.18 0.00773-2.35 0.0117-3.56-0.00129-1.13-0.00258-2.27-0.00391-3.44-0.00169-1.55-0.00169-1.55-0.00342-3.12-0.123-2.73-0.514-5.22-1.13-7.88h-2v-5h-2c-0.33-1.65-0.66-3.3-1-5h-2v-3h-2c-0.33-1.65-0.66-3.3-1-5h-2l-1-3h-2v-2h-2l-1-3h-4l-1-3c-1.32-0.699-2.65-1.37-4-2l-1-2c-1.9-0.465-1.9-0.465-4.06-0.625-1.3-0.124-2.6-0.248-3.94-0.375v-2h-7v-2h-22zm-490 457v2h-7v2l-1.83 0.148-2.42 0.227-2.39 0.211c-2.45 0.429-4.21 1.2-6.36 2.41v2l-2.75 0.375c-2.86 0.55-4.81 1.09-7.25 2.62l-1 2-1.88 0.375c-2.81 0.826-3.45 2.3-5.12 4.62-0.99 0.33-1.98 0.66-3 1v3c-0.639 0.103-1.28 0.206-1.94 0.312l-2.06 0.688-1 3c-0.99 0.33-1.98 0.66-3 1v2h-2v2c-1.49 0.495-1.49 0.495-3 1v2h-2v3h-2c-1.71 1.21-1.71 1.21-3 3v4l-3 1c-1.75 3.49-3 6.07-3 10h-2v2h-2l-1 8h-2c-4.12 10-6.66 20.1-6 31h-2v33h2l-0.0352 1.98c-0.0496 4.8 0.041 9.3 1.04 14h2l-0.188 3c-0.0274 4.47 1.47 7.91 3.19 12h2c0.33 2.64 0.66 5.28 1 8h2v2h2l1 6h2l1 6h2l0.812 1.69c1.3 2.52 2.61 4.95 4.19 7.31h2l1 3h2v2h2l1 3h2c0.268 0.639 0.536 1.28 0.812 1.94 1.07 2.39 1.07 2.39 4.19 3.06v2l2.38 0.25c2.62 0.75 2.62 0.75 3.75 2.75 0.289 0.66 0.577 1.32 0.875 2 0.99 0.33 1.98 0.66 3 1l1 2c4.79 2.34 4.79 2.34 10 3v2c2.64 0.33 5.28 0.66 8 1v2h5v2c5.2 0.868 10.2 1.13 15.4 1.06l2.22-0.0137c1.78-0.0116 3.56-0.0296 5.35-0.0488 0.33 0.66 0.66 1.32 1 2v-2l3.07 0.0352c1.35 0.00939 2.7 0.0185 4.05 0.0273 0.665 0.00838 1.33 0.0168 2.02 0.0254 4.07 0.0199 7.87-0.299 11.9-1.09v-2h7v-2l8-1v-2c1.98-0.33 3.96-0.66 6-1v-2h2v-2l5-1v-2h3v-2l8-4v-2h2v-2c0.99-0.33 1.98-0.66 3-1v-2h2v-2c0.99-0.33 1.98-0.66 3-1v-4c0.99-0.33 1.98-0.66 3-1v-2h2v-3c0.99-0.33 1.98-0.66 3-1v-4h2v-2h2l1-6h2c2.71-5.73 2.71-5.73 3-12h2c0.33-2.64 0.66-5.28 1-8h2c2.17-8.14 3.46-15.6 3-24h2v-27h-2c0.0174-1.07 0.0174-1.07 0.0352-2.16 0.0509-5.4-0.0891-10.5-1.04-15.8h-2l0.25-2.44c-0.28-3.99-1.39-6.48-3.09-10-2.01-4.39-3.56-8.97-5.16-13.5h-2l-0.25-2.88-0.75-3.12c-1.32-0.699-2.65-1.37-4-2-0.75-2.62-0.75-2.62-1-5h-2l-0.312-1.81c-0.792-2.52-1.81-3.38-3.69-5.19-1.19-2.19-1.19-2.19-2-4h-2v-2h-2l-1-3h-2v-2h-2v-2h-4c-0.433-0.928-0.433-0.928-0.875-1.88-1.06-2.26-1.06-2.26-3.12-4.12h-3v-2l-5-1v-2h-2v-2c-1.98-0.33-3.96-0.66-6-1v-2h-5v-2l-8-1v-2l-3.94-0.438c-3.94-0.438-3.94-0.438-5.06-1.56-10.4-1.3-20.6-0.89-31 0z" fill="#000102"/>
<path transform="translate(170 -.562)" d="m0 0c2.88 0.562 2.88 0.562 4.75 2.38 1.12 2.19 1.12 2.19 1.12 5.19 0.99 0.33 1.98 0.66 3 1v2h2c1.04 1.64 2.03 3.31 3 5 0.839 1.26 1.69 2.51 2.56 3.75 0.414 0.593 0.828 1.19 1.25 1.8 1.14 1.6 1.14 1.6 3.18 2.45 0.625 2.56 0.625 2.56 1 5h2v2h2c2.02 2.91 3.35 5.52 4 9h2v2h2c0.495 2.47 0.495 2.47 1 5h2v2c1.49 0.495 1.49 0.495 3 1 0.702 1.32 1.37 2.65 2 4 0.536 0.516 1.07 1.03 1.62 1.56 1.38 1.44 1.38 1.44 1.38 4.44h2c2.71 2.23 4.35 4.93 6 8v2h2v3h2c2.61 1.88 2.99 2.98 3.69 6.19 0.103 0.928 0.206 1.86 0.312 2.81 0.598 0.0619 1.2 0.124 1.81 0.188 3.11 1.16 3.67 2.92 5.19 5.81 1.87 3.65 1.87 3.65 5 6v2h2c0.33 1.65 0.66 3.3 1 5 0.99 0.33 1.98 0.66 3 1 0.702 1.32 1.37 2.65 2 4l1.62 1.56c1.38 1.44 1.38 1.44 1.38 4.44h2v2h2c0.0825 0.784 0.165 1.57 0.25 2.38l0.75 2.62c1.32 0.699 2.65 1.37 4 2 0.75 2.13 0.75 2.13 1 4h2c2.3 2.56 3 3.48 3 7h2c2.71 2.23 4.35 4.93 6 8v2h2c1.02 1.66 2.02 3.32 3 5 0.66 0.33 1.32 0.66 2 1 0.625 2.56 0.625 2.56 1 5h2v2h2c3 4.38 3 4.38 3 7h2c0.33 0.99 0.66 1.98 1 3l1.56 1.5c1.44 1.5 1.44 1.5 1.44 4.5h2v2c0.99 0.33 1.98 0.66 3 1 0.702 1.32 1.37 2.65 2 4l1.62 1.56c1.38 1.44 1.38 1.44 1.38 4.44h2c1.62 1.25 1.62 1.25 3 3v4c0.99 0.33 1.98 0.66 3 1v2h2v3h2c1.62 1.25 1.62 1.25 3 3v4c0.99 0.33 1.98 0.66 3 1v2h2c1.44 2.19 1.44 2.19 3 5 1.87 3.65 1.87 3.65 5 6v2h2c0.33 1.65 0.66 3.3 1 5h2c1.37 1.97 2.7 3.98 4 6 0.66 0.66 1.32 1.32 2 2v3h2v2h2c0.33 1.65 0.66 3.3 1 5h2c2.71 2.23 4.35 4.93 6 8v2h2v3h2c3.52 2.49 4.01 5.98 5 10h2c1.02 1.66 2.02 3.32 3 5 0.66 0.33 1.32 0.66 2 1 0.333 1.33 0.667 2.67 1 4 0.66 0.33 1.32 0.66 2 1v2h2c1.44 2.19 1.44 2.19 3 5 2.02 3.56 2.02 3.56 4.69 6.62 1.31 1.38 1.31 1.38 1.31 4.38h2v2c0.99 0.33 1.98 0.66 3 1 0.702 1.32 1.37 2.65 2 4l1.62 1.56c1.38 1.44 1.38 1.44 1.38 4.44h2c1.62 1.25 1.62 1.25 3 3v4c0.99 0.33 1.98 0.66 3 1v2h2v4c0.639 0.248 1.28 0.495 1.94 0.75 2.06 1.25 2.06 1.25 2.62 3.31 0.144 0.639 0.289 1.28 0.438 1.94 0.99 0.33 1.98 0.66 3 1v2h2c1.04 1.64 2.03 3.31 3 5 0.839 1.26 1.69 2.51 2.56 3.75 0.414 0.593 0.828 1.19 1.25 1.8 1.14 1.6 1.14 1.6 3.18 2.45 0.625 2.56 0.625 2.56 1 5h2c1.37 1.97 2.7 3.98 4 6l2 2v3h2v2h2l1 5h2v2c0.99 0.33 1.98 0.66 3 1 1.05 1.64 2.05 3.3 3 5l2 2v3h2c1.63 1.25 1.63 1.25 3 3v4c0.99 0.33 1.98 0.66 3 1v2h2v3h2c2.61 1.88 2.99 2.98 3.69 6.19l0.312 2.81 4 1 0.25 2.38c0.458 2.77 0.458 2.77 2.75 3.75l2 0.875 1 3 1.56 1.5c1.44 1.5 1.44 1.5 1.44 4.5h2v2h2c1.03 1.65 2.02 3.32 3 5l1.69 1.62c1.31 1.38 1.31 1.38 1.31 4.38h2v2h2l1 5c0.99 0.33 1.98 0.66 3 1v2h2v3h2c2.3 2.56 3 3.48 3 7h2c2.71 2.23 4.35 4.93 6 8v2h2c1.02 1.66 2.02 3.32 3 5 0.66 0.33 1.32 0.66 2 1 0.625 2.56 0.625 2.56 1 5h2v2h2c0.315 0.603 0.629 1.21 0.953 1.83 2.33 4.35 4.48 7.73 8.05 11.2v3h2v2c0.99 0.33 1.98 0.66 3 1 1.05 1.64 2.05 3.3 3 5 0.66 0.66 1.32 1.32 2 2v3h2c1.62 1.25 1.62 1.25 3 3v4c0.99 0.33 1.98 0.66 3 1v2h2v3h2c2.65 2.12 3.25 3.77 4 7 0.66 0.33 1.32 0.66 2 1v2h2c0.0825 0.784 0.165 1.57 0.25 2.38 0.458 2.77 0.458 2.77 2.75 3.75 0.66 0.289 1.32 0.578 2 0.875 0.33 0.99 0.66 1.98 1 3 0.773 0.743 0.773 0.743 1.56 1.5 1.44 1.5 1.44 1.5 1.44 4.5h2v2h2c1.37 1.97 2.7 3.98 4 6 0.66 0.66 1.32 1.32 2 2v3h2v2h2c0.33 1.65 0.66 3.3 1 5h2c1.63 1.31 1.63 1.31 3 3v3h2c2.3 2.56 3 3.48 3 7h2c2.71 2.23 4.35 4.93 6 8v2h2c1.02 1.66 2.02 3.32 3 5 0.66 0.33 1.32 0.66 2 1 0.333 1.33 0.667 2.67 1 4 0.66 0.33 1.32 0.66 2 1v2h2c0.33 1.65 0.66 3.3 1 5 0.99 0.33 1.98 0.66 3 1 0.702 1.32 1.37 2.65 2 4 0.804 0.773 0.804 0.773 1.62 1.56 1.38 1.44 1.38 1.44 1.38 4.44h2v2c0.99 0.33 1.98 0.66 3 1 1.05 1.64 2.05 3.3 3 5 0.66 0.66 1.32 1.32 2 2v3h2c1.62 1.25 1.62 1.25 3 3v4c0.99 0.33 1.98 0.66 3 1v6h-3v2h-2c-0.33 1.65-0.66 3.3-1 5h-2c-0.103 0.784-0.206 1.57-0.312 2.38-0.688 2.62-0.688 2.62-3.69 4.62-1.19 2.05-1.19 2.05-2 4h-2v2h-2c-0.103 0.784-0.206 1.57-0.312 2.38-0.688 2.62-0.688 2.62-3.69 4.62-1.9 2.89-3.5 5.88-5 9h-2v2h-2c-0.0825 0.763-0.165 1.53-0.25 2.31-0.911 3.26-2.03 3.82-4.75 5.69-0.33 0.99-0.66 1.98-1 3h-2c-0.33 1.65-0.66 3.3-1 5h-2v2c-0.66 0.33-1.32 0.66-2 1-0.124 0.619-0.247 1.24-0.375 1.88-0.826 2.81-2.3 3.45-4.62 5.12-0.33 0.99-0.66 1.98-1 3h-2c-1.21 2.33-2.17 4.5-3 7-1.44 1.69-1.44 1.69-3 3h-2c-0.124 0.578-0.247 1.16-0.375 1.75-0.631 2.27-1.51 4.18-2.62 6.25h-2v2h-2c-0.0825 0.763-0.165 1.53-0.25 2.31-0.75 2.69-0.75 2.69-2.56 4-3.28 2.53-4.53 5.97-6.19 9.69h-2v2h-2c-0.33 1.65-0.66 3.3-1 5h-2c-0.124 0.578-0.247 1.16-0.375 1.75-0.631 2.27-1.51 4.18-2.62 6.25h-2c-0.103 0.784-0.206 1.57-0.312 2.38-0.688 2.62-0.688 2.62-3.69 4.62-1.19 2.05-1.19 2.05-2 4h-2v4c-0.66 0.33-1.32 0.66-2 1-1.63 2.55-3.09 5.17-4.56 7.81l-1.44 2.19h-2c-0.33 1.65-0.66 3.3-1 5h-2v2h-2c-0.124 0.557-0.247 1.11-0.375 1.69-0.685 2.53-1.62 4.89-2.62 7.31h-2c-0.33 1.32-0.66 2.64-1 4h-2c-0.124 0.578-0.247 1.16-0.375 1.75-0.639 2.3-1.42 4.19-2.62 6.25-0.66 0.33-1.32 0.66-2 1-0.144 0.639-0.289 1.28-0.438 1.94-0.562 2.06-0.562 2.06-3.56 4.06-1.19 2.05-1.19 2.05-2 4h-2c-0.0825 0.536-0.165 1.07-0.25 1.62-1.01 3.21-2.82 5.64-4.75 8.38-3.4-2.23-5.02-4.49-7-8l-2-2v-3h-2l-1-5h-2v-2c-0.99-0.33-1.98-0.66-3-1v-3h-2c-2.3-2.56-3-3.48-3-7h-2l-0.25-2.38-0.75-2.62c-1.32-0.699-2.65-1.37-4-2-0.75-2.12-0.75-2.12-1-4h-2c-2.3-2.56-3-3.48-3-7h-2c-2.71-2.24-4.38-4.91-6-8v-3h-2v-2h-2l-1-5h-2c-1.03-1.65-2.02-3.32-3-5-0.835-0.804-0.835-0.804-1.69-1.62-1.31-1.38-1.31-1.38-1.31-4.38h-2v-2h-2l-0.25-2.38c-0.458-2.77-0.458-2.77-2.75-3.75l-2-0.875-1-3c-0.773-0.743-0.773-0.743-1.56-1.5-1.44-1.5-1.44-1.5-1.44-4.5h-2v-2h-2l-0.25-2.38c-0.458-2.77-0.458-2.77-2.75-3.75l-2-0.875-1-3-3-3v-2h-2v-3h-2c-1.44-2.19-1.44-2.19-3-5-1.87-3.65-1.87-3.65-5-6v-4c-0.99-0.33-1.98-0.66-3-1v-2h-2c-2.04-2.91-3-4.4-3-8h-2c-1.63-1.25-1.63-1.25-3-3v-4c-0.99-0.33-1.98-0.66-3-1v-3h-2c-2.3-2.56-3-3.48-3-7h-2c-1.37-1.97-2.7-3.98-4-6-0.66-0.66-1.32-1.32-2-2v-3h-2v-2h-2c-0.33-1.65-0.66-3.3-1-5h-2c-1.95-2.68-3.67-5.33-5.12-8.31-0.763-1.88-0.763-1.88-2.88-2.69v-2h-2c-0.33-1.65-0.66-3.3-1-5h-2c-1.02-1.66-2.02-3.32-3-5-0.66-0.33-1.32-0.66-2-1-0.333-1.33-0.667-2.67-1-4-0.66-0.33-1.32-0.66-2-1v-4c-0.99-0.33-1.98-0.66-3-1v-2h-2v-3h-2c-0.33-1.65-0.66-3.3-1-5h-2c-1.37-1.97-2.7-3.98-4-6-0.66-0.66-1.32-1.32-2-2v-3h-2v-2h-2c-0.33-1.65-0.66-3.3-1-5h-2c-1.44-2.19-1.44-2.19-3-5-1.87-3.65-1.87-3.65-5-6v-4c-0.99-0.33-1.98-0.66-3-1-0.702-1.32-1.37-2.65-2-4l-1.62-1.56c-1.38-1.44-1.38-1.44-1.38-4.44h-2c-3-4.38-3-4.38-3-7h-2c-2.04-2.91-3-4.4-3-8-0.99-0.33-1.98-0.66-3-1v-2h-2c-2.04-2.91-3-4.4-3-8h-2c-0.33-1.65-0.66-3.3-1-5h-2v-2h-2c-1.02-1.66-2.02-3.32-3-5-0.66-0.33-1.32-0.66-2-1-0.333-1.33-0.667-2.67-1-4-0.66-0.33-1.32-0.66-2-1-2.01-2.94-3-4.39-3-8h-2c-0.33-1.65-0.66-3.3-1-5h-2v-2h-2c-0.33-1.65-0.66-3.3-1-5h-2v-3h-2c-0.33-1.65-0.66-3.3-1-5h-2c-2.71-2.24-4.38-4.91-6-8v-3h-2v-2h-2c-0.33-1.65-0.66-3.3-1-5h-2c-2.04-2.91-3-4.4-3-8h-2c-0.33-1.65-0.66-3.3-1-5h-2v-2h-2c-2.04-2.91-3-4.4-3-8-0.99-0.33-1.98-0.66-3-1-1.32-2.03-1.32-2.03-2.56-4.5-1.55-3.4-1.55-3.4-4.44-5.5-0.625-2.56-0.625-2.56-1-5h-2v-3h-2l-0.375-1.94c-0.206-0.681-0.412-1.36-0.625-2.06-0.66-0.33-1.32-0.66-2-1-2.01-2.94-3-4.39-3-8h-2c-0.33-1.65-0.66-3.3-1-5h-2v-2h-2c-0.33-1.98-0.66-3.96-1-6h-2v-2h-2c-0.33-1.65-0.66-3.3-1-5h-2c-2.04-2.91-3-4.4-3-8h-2c-0.33-1.65-0.66-3.3-1-5h-2v-3h-2c-0.33-1.65-0.66-3.3-1-5h-2c-2.04-2.91-3-4.4-3-8h-2c-0.33-1.65-0.66-3.3-1-5h-2c-2.04-2.91-3-4.4-3-8h-2v-4h-2c-0.674-1.27-1.34-2.54-2-3.81-0.371-0.708-0.743-1.42-1.12-2.14-0.875-2.04-0.875-2.04-0.875-5.04h-2v-2h-2c-0.33-1.98-0.66-3.96-1-6h-2v-4h-2c-0.495-1.48-0.495-1.48-1-3-0.66-0.33-1.32-0.66-2-1v-4h-2c-0.33-1.65-0.66-3.3-1-5h-2c-2.14-7.43-2.14-7.43-3-11h-2c-0.33-2.64-0.66-5.28-1-8h-2c-2.7-6.27-5.24-12.4-7-19-0.33-0.33-0.66-0.66-1-1-0.0406-1.67-0.0427-3.33 0-5h-2c-0.199-0.905-0.199-0.905-0.402-1.83-0.177-0.799-0.353-1.6-0.535-2.42-0.174-0.789-0.348-1.58-0.527-2.39-0.483-2.13-0.997-4.24-1.54-6.36h-2c-0.11-0.58-0.219-1.16-0.332-1.76-0.749-3.69-1.42-6.78-3.23-10.1-2.1-4.56-2.18-9.15-2.44-14.1h-2l-1-11h-2v-5h-2c-0.847-5.08-1.09-9.85-1-15h-2c-2.51-8.03-3.17-15.6-3-24h-2c-0.993-9.36-1.11-18.6-1-28h-2c-0.0246-5.68-0.0428-11.4-0.0549-17-0.00504-1.93-0.0119-3.87-0.0205-5.8-0.0121-2.77-0.0178-5.55-0.0222-8.32-0.00516-0.87-0.0103-1.74-0.0156-2.64-1.95e-4 -2.07 0.0512-4.14 0.113-6.21 0.495-0.495 0.495-0.495 1-1 0.227-1.63 0.395-3.27 0.535-4.91 0.087-0.989 0.174-1.98 0.264-3 0.087-1.04 0.174-2.08 0.264-3.15 0.0909-1.04 0.182-2.09 0.275-3.17 0.225-2.59 0.445-5.18 0.662-7.77h2c-0.0206-1.22-0.0413-2.43-0.0625-3.69-0.00574-3.23 0.275-6.16 1.06-9.31h2v-7h2l1-8h2v-5h2c0.155-1.27 0.155-1.27 0.312-2.56 0.77-3.85 2.05-6.88 3.69-10.4h2l0.375-1.75c0.631-2.27 1.51-4.18 2.62-6.25h2c0.124-0.578 0.248-1.16 0.375-1.75 0.631-2.27 1.51-4.18 2.62-6.25h2c0.248-0.722 0.495-1.44 0.75-2.19 1.37-3.09 2.97-5.32 5.25-7.81h2c0.0928-0.835 0.0928-0.835 0.188-1.69 1.15-3.29 3.31-4.92 5.81-7.31 0.825-0.99 1.65-1.98 2.5-3 6.52-7.82 6.52-7.82 10.6-8.56z" fill="#000102"/>
<path transform="translate(852,934)" d="m0 0h3c0.433 1.05 0.866 2.1 1.31 3.19 0.999 2.35 2.03 4.37 3.38 6.56 1.31 2.25 1.31 2.25 1.31 5.25 1.49 0.495 1.49 0.495 3 1 1.65 2.6 2 3.86 2 7h2c0.454 1.13 0.908 2.27 1.38 3.44 1.2 3.61 1.2 3.61 3.62 4.56 0.407 2.32 0.744 4.66 1 7h2c0.33 1.98 0.66 3.96 1 6h2c3 6.62 3 6.62 3 10h2v3h2c0.33 2.31 0.66 4.62 1 7h2c0.33 1.98 0.66 3.96 1 6h2c3 6.62 3 6.62 3 10h2v3h2c0.33 1.65 0.66 3.3 1 5h2v4h2c0.33 2.64 0.66 5.28 1 8h2c0.33 2.31 0.66 4.62 1 7h2c3 5.62 3 5.62 3 9h2v3h2c0.33 2.31 0.66 4.62 1 7h2v3h2c0.33 2.31 0.66 4.62 1 7h2c0.33 1.98 0.66 3.96 1 6h2c3 6.62 3 6.62 3 10h2v3h2c0.33 2.31 0.66 4.62 1 7h2c0.33 1.98 0.66 3.96 1 6h2c3 6.62 3 6.62 3 10h2v3h2c0.33 2.31 0.66 4.62 1 7h2v3h2c0.33 2.31 0.66 4.62 1 7h2c0.33 1.98 0.66 3.96 1 6h2c3 6.62 3 6.62 3 10h2v2h2c0.33 1.98 0.66 3.96 1 6h2c3 6.62 3 6.62 3 10h2c0.454 1.13 0.908 2.27 1.38 3.44 1.2 3.61 1.2 3.61 3.62 4.56 3 6.23 3 6.23 3 10h2c0.33 1.65 0.66 3.3 1 5 0.99 0.33 1.98 0.66 3 1 1.65 2.6 2 3.86 2 7h2c0.33 1.32 0.66 2.64 1 4h2c3 3.46 3 3.46 3 6 0.639 0.268 1.28 0.536 1.94 0.812 2.06 1.19 2.06 1.19 3.06 4.19 0.99 0.33 1.98 0.66 3 1v2h4v2h7v-2h4c0.33-0.99 0.66-1.98 1-3h2c0.268-0.639 0.536-1.28 0.812-1.94 1.19-2.06 1.19-2.06 4.19-3.06 0.685-1.32 1.35-2.66 2-4 2-2.25 2-2.25 4-4h2v-4c0.784-0.0825 1.57-0.165 2.38-0.25 2.77-0.458 2.77-0.458 3.75-2.75 0.289-0.66 0.577-1.32 0.875-2 0.99-0.33 1.98-0.66 3-1v-2c1.65-1.03 3.32-2.02 5-3 0.536-0.557 1.07-1.11 1.62-1.69 1.38-1.31 1.38-1.31 4.38-1.31v-2h2c0.33-0.99 0.66-1.98 1-3 2.03-1.32 2.03-1.32 4.5-2.56 3.4-1.55 3.4-1.55 5.5-4.44 2.33-1 4.67-2 7-3 0.33-0.66 0.66-1.32 1-2 2.32-0.407 4.66-0.744 7-1v-2h3v-2c2.64-0.33 5.28-0.66 8-1v-2c1.44-0.506 2.87-1 4.31-1.5 0.801-0.278 1.6-0.557 2.43-0.844 2.26-0.656 2.26-0.656 5.26-0.656v-2c3.63-0.33 7.26-0.66 11-1v-2h7v-2c1.22-0.133 2.43-0.266 3.68-0.402 1.58-0.178 3.17-0.357 4.75-0.535 0.802-0.087 1.6-0.174 2.43-0.264 3.89-0.104 3.89-0.104 7.13-1.8 1.44-0.093 2.89-0.117 4.34-0.114 0.921 7.55e-5 1.84 1.51e-4 2.79 2.29e-4 1 0.00516 2 0.0103 3.03 0.0156 1.53 0.00212 1.53 0.00212 3.09 0.00429 3.27 0.00562 6.54 0.0182 9.81 0.0309 2.21 0.00501 4.42 0.00958 6.63 0.0137 5.43 0.0111 10.9 0.0278 16.3 0.0488v2c0.713-0.0116 1.43-0.0232 2.16-0.0352 5.4-0.0509 10.5 0.0891 15.8 1.04v2c0.846-0.0412 1.69-0.0825 2.56-0.125 3.78 0.137 6.83 1.01 10.4 2.12 1.66 0.354 3.33 0.696 5 1v2h5v2c2.64 0.33 5.28 0.66 8 1v2c1.98 0.33 3.96 0.66 6 1v2h4v2c1.98 0.33 3.96 0.66 6 1v2c0.866 0.186 0.866 0.186 1.75 0.375 2.27 0.631 4.18 1.51 6.25 2.62v2c0.866 0.186 0.866 0.186 1.75 0.375 2.27 0.631 4.18 1.51 6.25 2.62v2c2.33 1.21 4.5 2.17 7 3 0.309 0.825 0.619 1.65 0.938 2.5 0.351 0.825 0.701 1.65 1.06 2.5 1.32 0.378 2.66 0.702 4 1 2.21 1.51 4.02 3.16 6 5v2h2v2c0.577 0.0825 1.16 0.165 1.75 0.25 2.9 0.968 4.29 2.44 6.25 4.75v2c0.928 0.371 0.928 0.371 1.88 0.75 2.5 1.47 2.96 2.66 4.12 5.25 0.66 0.33 1.32 0.66 2 1v2h2c1.51 1.43 1.51 1.43 3.12 3.31 0.808 0.922 0.808 0.922 1.63 1.86 1.24 1.82 1.24 1.82 1.24 4.82 0.99 0.33 1.98 0.66 3 1v2h2v3h2c0.33 1.65 0.66 3.3 1 5h2v2h2c0.33 1.65 0.66 3.3 1 5h2c2.04 2.91 3 4.4 3 8h2c3 6.62 3 6.62 3 10h2c0.33 1.98 0.66 3.96 1 6h2c3 6.62 3 6.62 3 10h2c0.33 2.97 0.66 5.94 1 9h2v4h2c0.33 3.3 0.66 6.6 1 10h2v5h2c0.33 4.29 0.66 8.58 1 13h2c0.133 1.22 0.266 2.43 0.402 3.68 0.178 1.58 0.357 3.17 0.535 4.75 0.131 1.2 0.131 1.2 0.264 2.43 0.104 3.89 0.104 3.89 1.8 7.13 0.0723 1.85 0.0838 3.71 0.0625 5.56-0.00902 1.01-0.018 2.02-0.0273 3.07-0.0174 1.17-0.0174 1.17-0.0352 2.37h2v59h-2c0.0116 0.782 0.0232 1.56 0.0352 2.37 0.0135 1.52 0.0135 1.52 0.0273 3.07 0.0116 1.01 0.0232 2.02 0.0352 3.06-0.0977 2.5-0.0977 2.5-1.1 3.5-0.4 2.86-0.752 5.7-1.06 8.56-0.0909 0.806-0.182 1.61-0.275 2.44-0.225 2-0.444 4-0.662 5.99h-2c-0.33 4.29-0.66 8.58-1 13h-2v5h-2c-0.33 3.3-0.66 6.6-1 10h-2v5h-2c-0.33 2.64-0.66 5.28-1 8h-2c-0.124 0.536-0.247 1.07-0.375 1.62-0.747 2.84-1.68 5.6-2.62 8.38h-2c-0.33 1.98-0.66 3.96-1 6h-2c-0.124 0.536-0.247 1.07-0.375 1.62-0.747 2.84-1.68 5.6-2.62 8.38h-2c-0.124 0.577-0.247 1.16-0.375 1.75-0.631 2.27-1.51 4.18-2.62 6.25h-2c-0.33 1.65-0.66 3.3-1 5h-2v2h-2c-0.124 0.557-0.247 1.11-0.375 1.69-0.685 2.53-1.62 4.89-2.62 7.31h-3v2h-2c-0.0619 0.536-0.124 1.07-0.188 1.62-1.57 4.59-4.85 7.74-8.81 10.4-1.19 2.05-1.19 2.05-2 4h-2v2h-2c-0.33 0.99-0.66 1.98-1 3h-2c-0.268 0.639-0.536 1.28-0.812 1.94-1.19 2.06-1.19 2.06-4.19 3.06v2c-0.701 0.392-1.4 0.784-2.12 1.19-3.24 2.04-5.11 4.3-7.45 7.29-1.43 1.52-1.43 1.52-4.43 2.52-0.743 0.773-0.743 0.773-1.5 1.56-1.5 1.44-1.5 1.44-4.5 1.44v2h-2v2c-2.91 2.04-4.4 3-8 3v2c-1.77 1.01-3.54 2.01-5.31 3-0.986 0.557-1.97 1.11-2.99 1.69-2.7 1.31-2.7 1.31-5.7 1.31v2c-2.31 0.33-4.62 0.66-7 1v2h-3v2c-2.64 0.33-5.28 0.66-8 1v2h-5v2c-3.3 0.33-6.6 0.66-10 1v2c-0.999 0.133-2 0.266-3.03 0.402-1.29 0.177-2.58 0.353-3.91 0.535-1.29 0.174-2.58 0.348-3.9 0.527-3.01 0.197-3.01 0.197-4.16 1.54-2.32 0.321-4.64 0.512-6.97 0.719-2.02 0.0719-2.02 0.0719-3.03 1.28-1.53 0.0932-3.07 0.117-4.61 0.114-0.981-7.55e-5 -1.96-1.51e-4 -2.97-2.29e-4 -1.07-0.00516-2.13-0.0103-3.23-0.0156-1.63-0.00212-1.63-0.00212-3.29-0.00429-3.48-0.00562-6.97-0.0182-10.5-0.0309-2.36-0.00501-4.71-0.00958-7.07-0.0137-5.79-0.0111-11.6-0.0278-17.4-0.0488v-2h-10v-2c-4.29-0.33-8.58-0.66-13-1v-2c-3.63-0.33-7.26-0.66-11-1v-2c-0.859-0.215-0.859-0.215-1.73-0.434-3.42-0.855-6.84-1.71-10.3-2.57v-2h-5v-2c-1.98-0.33-3.96-0.66-6-1v-2c-0.577-0.124-1.15-0.248-1.75-0.375-2.27-0.631-4.18-1.51-6.25-2.62v-2c-1.67-0.155-1.67-0.155-3.38-0.312-1.2-0.227-2.39-0.454-3.62-0.688-0.66-0.99-1.32-1.98-2-3-2.05-1.19-2.05-1.19-4-2v-2h-4c-1.75-1.38-1.75-1.38-3-3v-2c-0.763-0.0825-1.53-0.165-2.31-0.25-3.26-0.911-3.82-2.03-5.69-4.75-0.99-0.33-1.98-0.66-3-1v-2h-2v-2c-0.99-0.33-1.98-0.66-3-1v-2h-2c-1.62-1.38-1.62-1.38-3-3v-2c-0.99-0.33-1.98-0.66-3-1v-2h-2v-2c-0.99-0.33-1.98-0.66-3-1v-2h-2c-1.98-1.64-3.13-3.21-4.44-5.44-1.47-2.65-1.47-2.65-3.75-4.69-1.81-1.88-1.81-1.88-1.81-4.88h-3c-0.33-1.98-0.66-3.96-1-6h-2v-2h-2c-0.33-1.65-0.66-3.3-1-5h-2v-3h-2c-0.33-1.65-0.66-3.3-1-5h-2c-1.26-2.91-2-4.8-2-8h-2c-3-6.62-3-6.62-3-10h-2c-0.33-1.98-0.66-3.96-1-6h-2v-5h-2c-0.33-2.64-0.66-5.28-1-8h-2v-4h-2c-0.33-2.97-0.66-5.94-1-9h-2c-0.133-0.782-0.266-1.56-0.402-2.37-0.177-1.01-0.353-2.02-0.535-3.07-0.174-1.01-0.348-2.02-0.527-3.06-0.283-2.43-0.283-2.43-1.54-3.5-0.0406-1.67-0.0427-3.33 0-5h-2c-0.247-1.28-0.495-2.56-0.75-3.88-0.982-4.51-2.56-8.56-4.45-12.8-0.883-2.59-0.949-4.64-0.805-7.36h-2c-0.33-2.64-0.66-5.28-1-8h-2v-5h-2c-0.508-1.41-1.01-2.83-1.5-4.25-0.278-0.789-0.557-1.58-0.844-2.39-0.656-2.36-0.656-2.36-0.656-6.36h-2c-0.231-0.799-0.461-1.6-0.699-2.42-2.31-7.76-5.09-15.1-8.3-22.6-1.29-2.99-2-4.71-2-8h-2c-0.33-2.64-0.66-5.28-1-8h-2c-4.49-11.2-4.49-11.2-5.27-13.2-0.622-1.54-1.27-3.08-1.92-4.61-0.805-2.2-0.805-2.2-0.805-5.2h-2c-0.33-2.64-0.66-5.28-1-8h-2c-3-6.62-3-6.62-3-10h-2v-5h-2c-0.33-1.98-0.66-3.96-1-6h-2c-0.99-2.97-1.98-5.94-3-9h-2c-0.309-1.13-0.619-2.27-0.938-3.44-0.692-3.35-0.692-3.35-2.06-4.56-0.0406-1.67-0.0427-3.33 0-5h-2c-0.33-1.98-0.66-3.96-1-6h-2c-3-6.62-3-6.62-3-10h-2c-0.454-1.13-0.908-2.27-1.38-3.44-1.2-3.61-1.2-3.61-3.62-4.56-3-6.23-3-6.23-3-10h-2c-0.266-0.71-0.531-1.42-0.805-2.15-0.353-0.919-0.706-1.84-1.07-2.79-0.348-0.917-0.696-1.83-1.05-2.78-0.852-2.43-0.852-2.43-3.07-3.29v-4h-2c-0.33-1.98-0.66-3.96-1-6h-2v-2h-2c-0.33-1.98-0.66-3.96-1-6h-2v-4h-3c-1.24-2.97-2.3-5.85-3-9h-2v-4c-0.99-0.33-1.98-0.66-3-1-0.699-1.32-1.37-2.65-2-4-0.66-0.33-1.32-0.66-2-1-0.333-1.33-0.667-2.67-1-4-0.66-0.33-1.32-0.66-2-1-2.01-2.94-3-4.39-3-8h-2c-0.495-2.47-0.495-2.47-1-5h-2v-2c-0.99-0.33-1.98-0.66-3-1-1.05-1.64-2.05-3.3-3-5-0.66-0.66-1.32-1.32-2-2v-3h-2c-1.51-1.43-1.51-1.43-3.12-3.31-0.539-0.615-1.08-1.23-1.63-1.86-1.24-1.82-1.24-1.82-1.24-4.82h-2v-2c-0.99-0.33-1.98-0.66-3-1v-2h-2c-1.62-1.38-1.62-1.38-3-3v-2c-0.99-0.33-1.98-0.66-3-1-0.685-1.32-1.35-2.66-2-4-2.36-2.66-3.59-3.86-7-5-0.681-1.14-0.681-1.14-1.38-2.31-1.85-3.05-3.8-4.54-6.62-6.69-2.81-2.62-2.81-2.62-5-5v-2h-3v-2c-0.99-0.33-1.98-0.66-3-1v-2c-0.99-0.33-1.98-0.66-3-1v-2h-2v-2c-0.99-0.33-1.98-0.66-3-1v-2h-4c-1.27-1.46-2.53-2.94-3.71-4.48-1.78-2.1-3.9-3.2-6.29-4.52l-3-3c-0.99-0.33-1.98-0.66-3-1v-2c-0.99-0.33-1.98-0.66-3-1v-2c-0.897-0.186-0.897-0.186-1.81-0.375-2.19-0.625-2.19-0.625-5.19-2.62v-2c-0.619-0.0825-1.24-0.165-1.88-0.25-1.05-0.371-1.05-0.371-2.12-0.75-0.464-0.99-0.464-0.99-0.938-2-0.351-0.66-0.701-1.32-1.06-2-2.56-0.812-2.56-0.812-5-1v-2c-0.897-0.186-0.897-0.186-1.81-0.375-2.19-0.625-2.19-0.625-5.19-2.62v-3h2v-2c1.38-1.62 1.38-1.62 3-3h2v-2c1.64-1.37 3.31-2.7 5-4 0.557-0.578 1.11-1.15 1.69-1.75 1.31-1.25 1.31-1.25 3.31-1.25 0.33-1.32 0.66-2.64 1-4h2v-2c1.38-1.62 1.38-1.62 3-3h2c0.495-1.48 0.495-1.48 1-3h2v-2c1.38-1.62 1.38-1.62 3-3h2v-2c1.38-1.62 1.38-1.62 3-3h2v-2c1.65-1.35 3.32-2.69 5-4 0.33-0.66 0.66-1.32 1-2h2v-2c1.38-1.62 1.38-1.62 3-3h2v-2c1.38-1.62 1.38-1.62 3-3h2v-2c1.65-1.35 3.32-2.69 5-4l1-2h2v-2c1.38-1.62 1.38-1.62 3-3h2v-2c1.65-1.35 3.32-2.69 5-4l1-2h2v-2c1.38-1.62 1.38-1.62 3-3h2v-2c1.38-1.62 1.38-1.62 3-3h2v-2c1.64-1.37 3.31-2.7 5-4 0.557-0.577 1.11-1.15 1.69-1.75 1.31-1.25 1.31-1.25 3.31-1.25 0.33-1.32 0.66-2.64 1-4h2v-2c1.38-1.62 1.38-1.62 3-3h2c0.495-1.49 0.495-1.49 1-3h2v-2h2c0.103-0.784 0.206-1.57 0.312-2.38 0.688-2.62 0.688-2.62 3.69-4.62 1.19-2.05 1.19-2.05 2-4h2v-2zm300 324v2h-7v2c-0.603 0.049-1.21 0.098-1.83 0.148-0.799 0.0748-1.6 0.15-2.42 0.227-0.789 0.0696-1.58 0.139-2.39 0.211-2.45 0.429-4.21 1.2-6.36 2.41v2c-1.98 0.33-3.96 0.66-6 1v2h-4c-0.33 0.66-0.66 1.32-1 2-2.28 1.29-4.62 2.43-6.97 3.59-2.21 1.25-2.21 1.25-2.81 3.58-0.0722 0.606-0.144 1.21-0.219 1.84h-3v2h-2v2c-0.99 0.33-1.98 0.66-3 1v2h-2v2c-1.49 0.495-1.49 0.495-3 1v2c-1.49 0.495-1.49 0.495-3 1-1.58 2.34-2.86 4.7-4.06 7.25-0.938 1.75-0.938 1.75-2.94 2.75-2.01 2.94-3 4.39-3 8h-2v4h-2c-0.33 2.64-0.66 5.28-1 8h-2c-0.33 2.64-0.66 5.28-1 8h-2v5h-2c-1.04 5.05-1.1 9.87-1 15h-2v39h2c-0.0206 1.18-0.0412 2.35-0.0625 3.56-0.00697 3.91 0.42 7.58 1.06 11.4h2v5h2c0.33 2.64 0.66 5.28 1 8h2c0.33 2.64 0.66 5.28 1 8h2v3h2c0.495 2.47 0.495 2.47 1 5h2v4h2c0.268 0.804 0.536 1.61 0.812 2.44 0.392 0.846 0.784 1.69 1.19 2.56 0.99 0.33 1.98 0.66 3 1 0.33 1.65 0.66 3.3 1 5h2c0.33 0.99 0.66 1.98 1 3h2v2h2c0.33 0.99 0.66 1.98 1 3h2v2h2c0.33 0.99 0.66 1.98 1 3h2c0.33 0.99 0.66 1.98 1 3h4c0.268 0.639 0.536 1.28 0.812 1.94 1.07 2.39 1.07 2.39 4.19 3.06 0.33 0.66 0.66 1.32 1 2h4v2c1.98 0.33 3.96 0.66 6 1v2c2.64 0.33 5.28 0.66 8 1v2h5v2c6.97 1.33 13.9 1.09 21 1v2h3v-2c1.52 0.0174 1.52 0.0174 3.07 0.0352 1.35 0.00939 2.7 0.0185 4.05 0.0273 0.665 0.00838 1.33 0.0168 2.02 0.0254 4.07 0.0199 7.87-0.299 11.9-1.09v-2h5v-2c2.64-0.33 5.28-0.66 8-1v-2c0.908-0.124 1.82-0.248 2.75-0.375 2.84-0.546 4.78-1.2 7.25-2.62v-2c1.65-0.33 3.3-0.66 5-1v-2h3v-2c0.598-0.268 1.2-0.536 1.81-0.812 2.22-1.07 2.22-1.07 3.75-2.75 1.44-1.44 1.44-1.44 4.44-2.44v-2c0.99-0.33 1.98-0.66 3-1v-2h2c2.32-3.22 2.32-3.22 3-7 0.639-0.248 1.28-0.495 1.94-0.75 2.25-1.07 2.25-1.07 2.81-3.38 0.0825-0.619 0.165-1.24 0.25-1.88h2c2.04-2.91 3-4.4 3-8h2c0.186-0.959 0.186-0.959 0.375-1.94 0.206-0.681 0.412-1.36 0.625-2.06 0.66-0.33 1.32-0.66 2-1 0.909-1.74 0.909-1.74 1.62-3.81 0.26-0.687 0.521-1.37 0.789-2.08 0.765-2.38 0.765-2.38 0.586-6.11h2c2.11-5.53 3.38-10.1 3-16h2c0.921-4.66 1.12-9.15 1.06-13.9-0.00677-1.03-0.00677-1.03-0.0137-2.09-0.0117-1.68-0.0296-3.36-0.0488-5.04h2v-17h-2c0.0174-1.27 0.0174-1.27 0.0352-2.56 0.0497-6.25-0.0658-12.3-1.04-18.4h-2c0.0889-1.46 0.0889-1.46 0.18-2.96-0.00232-4.6-1.44-8.47-3.05-12.7-0.269-0.746-0.539-1.49-0.816-2.26-1.26-3.45-2.55-6.82-4.31-10.1h-2c-0.33-1.65-0.66-3.3-1-5h-2c-0.124-0.577-0.247-1.16-0.375-1.75-0.631-2.27-1.51-4.18-2.62-6.25h-2c-0.0838-0.752-0.168-1.5-0.254-2.28-0.905-3.3-2.02-4.21-4.68-6.29-2.9-2.28-4.63-4.01-6.06-7.44h-2v-2h-3v-2h-3v-3c-2.53-2.36-3.47-3-7-3v-2c-1.65-0.33-3.3-0.66-5-1v-2h-3v-2c-2.31-0.33-4.62-0.66-7-1v-2h-3v-2c-4.95-0.495-4.95-0.495-10-1v-2c-5.03-1.61-9.77-2.42-15.1-2.69-0.731-0.0405-1.46-0.081-2.21-0.123-6.97-0.321-13.8 0.0957-20.7 0.81z" fill="#000102"/>
</svg>
