<?xml version="1.0" standalone="no"?>
<!DOCTYPE svg PUBLIC "-//W3C//DTD SVG 20010904//EN"
 "http://www.w3.org/TR/2001/REC-SVG-20010904/DTD/svg10.dtd">
<svg version="1.0" xmlns="http://www.w3.org/2000/svg"
 width="60.000000pt" height="70.000000pt" viewBox="0 0 60.000000 70.000000"
 preserveAspectRatio="xMidYMid meet">

<g transform="translate(0.000000,70.000000) scale(0.100000,-0.100000)"
fill="#000000" stroke="none">
<path d="M61 682 c-28 -52 -4 -114 101 -259 32 -46 61 -83 62 -83 11 0 55 83
49 93 -8 13 -181 247 -194 261 -4 4 -12 -1 -18 -12z"/>
<path d="M387 516 c-76 -102 -152 -211 -169 -243 -57 -108 -54 -105 -88 -88
-41 21 -64 19 -97 -9 -24 -21 -28 -32 -28 -76 0 -44 4 -55 28 -76 15 -13 39
-24 52 -24 25 0 85 44 85 63 0 7 13 39 29 72 20 43 47 76 93 117 65 57 184
213 233 304 27 51 32 100 12 127 -11 15 -29 -5 -150 -167z m-70 -182 c8 -21
-13 -42 -28 -27 -13 13 -5 43 11 43 6 0 13 -7 17 -16z m-199 -196 c7 -7 12
-24 12 -38 0 -52 -48 -68 -76 -25 -15 23 -15 27 0 50 18 27 45 32 64 13z"/>
<path d="M350 265 l-24 -25 27 -28 c14 -15 38 -54 52 -87 43 -97 46 -102 72
-114 36 -17 59 -13 90 13 24 21 28 32 28 76 0 44 -4 55 -28 76 -33 28 -56 30
-97 9 -33 -17 -36 -14 -77 68 l-19 38 -24 -26z m196 -140 c15 -23 15 -27 0
-50 -28 -43 -76 -27 -76 25 0 52 48 68 76 25z"/>
</g>
</svg>
