<svg xmlns="http://www.w3.org/2000/svg" xml:space="preserve" width="0.275563in" height="0.318539in" version="1.0" shape-rendering="geometricPrecision" text-rendering="geometricPrecision" image-rendering="optimizeQuality" fill-rule="evenodd" clip-rule="evenodd"
viewBox="0 0 29 34"
 xmlns:xlink="http://www.w3.org/1999/xlink">
 <g id="Layer_x0020_1">
  <metadata id="CorelCorpID_0Corel-Layer"/>
  <g id="tesoura4.svg">
   <g>
    <path fill="black" d="M3 3c0,2 2,6 4,9 4,5 4,7 3,10 -1,2 -3,3 -5,3 -3,-1 -6,3 -5,7 2,3 6,2 8,-2 2,-2 4,-6 6,-7 2,-3 2,-3 0,-4 -2,-1 -2,-2 -2,-4 1,-2 -7,-15 -9,-15 0,0 0,1 0,3l0 0zm3 26c0,1 -1,2 -2,2 -1,0 -3,-2 -2,-3 2,-2 4,-1 4,1z"/>
    <path fill="black" d="M21 7c-8,10 -8,10 -6,11 3,1 12,-11 11,-15 0,-3 -1,-2 -5,4l0 0z"/>
    <path fill="black" d="M16 21c0,1 2,4 4,7 4,6 7,8 9,4 1,-4 -2,-8 -5,-7 -2,0 -3,-1 -4,-2 -1,-2 -4,-3 -4,-2zm11 8c0,1 -1,2 -2,2 -1,0 -1,-1 -1,-2 0,-1 0,-2 1,-2 1,0 2,1 2,2z"/>
   </g>
  </g>
 </g>
</svg>
